<?xml version="1.0" encoding="utf-8"?>
<!DOCTYPE svg PUBLIC "-//W3C//DTD SVG 1.0//EN" "http://www.w3.org/TR/2001/REC-SVG-20010904/DTD/svg10.dtd">
<svg version="1.0" xmlns="http://www.w3.org/2000/svg" width="1600px" height="1600px" viewBox="0 0 1600 1600" preserveAspectRatio="xMidYMid meet">
 <g fill="#f7f7f7">
  <path d="M0 800 l0 -800 800 0 800 0 0 800 0 800 -800 0 -800 0 0 -800z m404.6 760 c1.2 -3 2.5 -6.4 2.8 -7.4 0.4 -1.6 0.7 -1.7 2 -0.6 1.4 1.1 1.6 0.4 1.6 -6.5 0 -4.3 -0.2 -7.6 -0.4 -7.4 -2.4 2.4 -8.6 10.5 -8.6 11.1 0 0.5 0.6 0.8 1.4 0.8 1.2 0 1 1.1 -0.7 6 -1.2 3.3 -2.5 6 -2.8 6 -0.3 0 -1.3 -1.8 -2.2 -4 -1.1 -2.8 -2 -3.8 -3 -3.4 -1.2 0.4 -1.1 1.4 0.7 6 1.8 4.7 2.4 5.4 4.5 5.2 2 -0.2 3 -1.5 4.7 -5.8z m-9.6 -9.4 c0 -0.8 -0.4 -1.7 -0.8 -2 -1.3 -0.8 -3.5 1.1 -2.8 2.3 1 1.6 3.6 1.4 3.6 -0.3z m-2.4 -4.7 c0.3 -0.6 0.2 -1.5 -0.2 -1.9 -1.2 -1.2 -3.8 0.5 -3 1.9 0.9 1.4 2.3 1.4 3.2 0z m-2.3 -6.5 c-0.3 -0.8 -0.9 -1.4 -1.3 -1.4 -1.3 0 -2.2 1.9 -1.5 3 0.9 1.4 3.4 0 2.8 -1.6z m270.3 -75.4 c1.2 -3 2.5 -6.4 2.8 -7.4 0.4 -1.6 0.7 -1.7 2 -0.6 1.4 1.1 1.6 0.4 1.6 -6.5 0 -4.3 -0.2 -7.6 -0.4 -7.4 -2.4 2.4 -8.6 10.5 -8.6 11.1 0 0.5 0.6 0.8 1.4 0.8 1.2 0 1 1.1 -0.7 6 -1.2 3.3 -2.5 6 -2.8 6 -0.3 0 -1.3 -1.8 -2.2 -4 -1.1 -2.8 -2 -3.8 -3 -3.4 -1.2 0.4 -1.1 1.4 0.7 6 1.8 4.7 2.4 5.4 4.5 5.2 2 -0.2 3 -1.5 4.7 -5.8z m-9.6 -9.4 c0 -0.8 -0.4 -1.7 -0.8 -2 -1.3 -0.8 -3.5 1.1 -2.8 2.3 1 1.6 3.6 1.4 3.6 -0.3z m-2.4 -4.7 c0.3 -0.6 0.2 -1.5 -0.2 -1.9 -1.2 -1.2 -3.8 0.5 -3 1.9 0.9 1.4 2.3 1.4 3.2 0z m-2.3 -6.5 c-0.3 -0.8 -0.9 -1.4 -1.3 -1.4 -1.3 0 -2.2 1.9 -1.5 3 0.9 1.4 3.4 0 2.8 -1.6z m526.3 -331.4 c1.2 -3 2.5 -6.4 2.8 -7.4 0.4 -1.6 0.7 -1.7 2 -0.6 1.4 1.1 1.6 0.4 1.6 -6.5 0 -4.3 -0.2 -7.6 -0.4 -7.4 -2.4 2.4 -8.6 10.5 -8.6 11.1 0 0.5 0.6 0.8 1.4 0.8 1.2 0 1 1.1 -0.7 6 -1.2 3.3 -2.5 6 -2.8 6 -0.3 0 -1.3 -1.8 -2.2 -4 -1.1 -2.8 -2 -3.8 -3 -3.4 -1.2 0.4 -1.1 1.4 0.7 6 1.8 4.7 2.4 5.4 4.5 5.2 2 -0.2 3 -1.5 4.7 -5.8z m-9.6 -9.4 c0 -0.8 -0.4 -1.7 -0.8 -2 -1.3 -0.8 -3.5 1.1 -2.8 2.3 1 1.6 3.6 1.4 3.6 -0.3z m-2.4 -4.7 c0.3 -0.6 0.2 -1.5 -0.2 -1.9 -1.2 -1.2 -3.8 0.5 -3 1.9 0.9 1.4 2.3 1.4 3.2 0z m-2.3 -6.5 c-0.3 -0.8 -0.9 -1.4 -1.3 -1.4 -1.3 0 -2.2 1.9 -1.5 3 0.9 1.4 3.4 0 2.8 -1.6z m-113.3 -12.7 c2 -5.3 2.9 -6.7 4.3 -6.3 1.5 0.4 1.7 -0.4 1.7 -7.2 0 -4.1 -0.2 -7.3 -0.4 -7.1 -2.4 2.4 -8.6 10.5 -8.6 11.1 0 0.5 0.6 0.8 1.4 0.8 1.2 0 1 1.1 -0.7 6 -1.2 3.3 -2.5 6 -2.8 6 -0.3 0 -1.3 -1.8 -2.2 -4 -1.1 -2.8 -2 -3.8 -3 -3.4 -1.2 0.4 -1.1 1.4 0.7 6 1.8 4.8 2.4 5.4 4.6 5.2 2.1 -0.3 2.9 -1.4 5 -7.1z m-10 -8.1 c0 -0.8 -0.4 -1.7 -0.8 -2 -1.3 -0.8 -3.5 1.1 -2.8 2.3 1 1.6 3.6 1.4 3.6 -0.3z m-2.4 -4.7 c0.3 -0.6 0.2 -1.5 -0.2 -1.9 -1.2 -1.2 -3.8 0.5 -3 1.9 0.9 1.4 2.3 1.4 3.2 0z m-2.3 -6.5 c-0.3 -0.8 -0.9 -1.4 -1.3 -1.4 -1.3 0 -2.2 1.9 -1.5 3 0.9 1.4 3.4 0 2.8 -1.6z m-113.7 -11.4 c1.2 -3 2.5 -6.4 2.8 -7.4 0.4 -1.6 0.7 -1.7 2 -0.6 1.4 1.1 1.6 0.4 1.6 -6.5 0 -4.3 -0.2 -7.6 -0.4 -7.4 -2.4 2.4 -8.6 10.5 -8.6 11.1 0 0.5 0.6 0.8 1.4 0.8 1.2 0 1 1.1 -0.7 6 -1.2 3.3 -2.5 6 -2.8 6 -0.3 0 -1.3 -1.8 -2.2 -4 -1.1 -2.8 -2 -3.8 -3 -3.4 -1.2 0.4 -1.1 1.4 0.7 6 1.8 4.7 2.4 5.4 4.5 5.2 2 -0.2 3 -1.5 4.7 -5.8z m-9.6 -9.4 c0 -0.8 -0.4 -1.7 -0.8 -2 -1.3 -0.8 -3.5 1.1 -2.8 2.3 1 1.6 3.6 1.4 3.6 -0.3z m-2.4 -4.7 c0.3 -0.6 0.2 -1.5 -0.2 -1.9 -1.2 -1.2 -3.8 0.5 -3 1.9 0.9 1.4 2.3 1.4 3.2 0z m-2.3 -6.5 c-0.3 -0.8 -0.9 -1.4 -1.3 -1.4 -1.3 0 -2.2 1.9 -1.5 3 0.9 1.4 3.4 0 2.8 -1.6z m-113.7 -11.4 c1.2 -3 2.5 -6.4 2.8 -7.4 0.4 -1.6 0.7 -1.7 2 -0.6 1.4 1.1 1.6 0.4 1.6 -6.5 0 -4.3 -0.2 -7.6 -0.4 -7.4 -2.4 2.4 -8.6 10.5 -8.6 11.1 0 0.5 0.6 0.8 1.4 0.8 1.2 0 1 1.1 -0.7 6 -1.2 3.3 -2.5 6 -2.8 6 -0.3 0 -1.3 -1.8 -2.2 -4 -1.1 -2.8 -2 -3.8 -3 -3.4 -1.2 0.4 -1.1 1.4 0.7 6 1.8 4.7 2.4 5.4 4.5 5.2 2 -0.2 3 -1.5 4.7 -5.8z m-9.6 -9.4 c0 -0.8 -0.4 -1.7 -0.8 -2 -1.3 -0.8 -3.5 1.1 -2.8 2.3 1 1.6 3.6 1.4 3.6 -0.3z m-2.4 -4.7 c0.3 -0.6 0.2 -1.5 -0.2 -1.9 -1.2 -1.2 -3.8 0.5 -3 1.9 0.9 1.4 2.3 1.4 3.2 0z m-2.3 -6.5 c-0.3 -0.8 -0.9 -1.4 -1.3 -1.4 -1.3 0 -2.2 1.9 -1.5 3 0.9 1.4 3.4 0 2.8 -1.6z m178.7 -22.1 l-0.1 -4.8 -6.4 -4 c-5.9 -3.6 -6.5 -4.3 -6.5 -7.3 0 -2.5 0.8 -4 3.5 -6.3 1.9 -1.7 4.7 -5.6 6.2 -8.7 2.4 -5 2.8 -6.9 2.8 -14.7 0 -8 -0.4 -9.7 -3.1 -15.5 -1.8 -3.6 -4.8 -8.4 -6.8 -10.7 -4.2 -4.8 -15.4 -10.8 -22 -11.8 l-4.4 -0.7 1.2 -3.1 c0.7 -1.8 1.6 -4 2 -5.1 0.5 -1.5 0.9 -1.6 2.1 -0.6 1.3 1.1 1.5 0.2 1.5 -6.5 0 -4.3 -0.2 -7.6 -0.4 -7.4 -2.2 2.3 -8.6 10.5 -8.6 11.1 0 0.3 0.6 0.8 1.4 1 1.1 0.2 1 1.3 -0.7 5.6 -1.1 2.8 -2.4 5.2 -2.8 5.2 -0.5 0 -1.5 -1.6 -2.3 -3.5 -1 -2.4 -2 -3.3 -3 -2.9 -1.2 0.5 -1.2 1 -0.1 3.9 l1.4 3.3 -4.7 1.7 c-17.3 6.5 -28.1 22.1 -28.2 40.6 0 11.1 5.3 23.4 13.6 31.5 11.2 11 28.9 13.5 40.6 5.8 5.8 -3.7 8.6 -3.2 16.5 3.1 3.7 2.9 6.9 5.4 7.1 5.5 0.1 0 0.2 -2.1 0.2 -4.7z m32.3 -0.7 c3.3 -1.5 6.2 -3.8 8.5 -6.8 1.1 -1.4 0.7 -1.5 -5.1 -1.1 -9.2 0.8 -13.4 -0.9 -15.8 -6.1 -1.6 -3.6 -1.9 -6.7 -1.9 -24.8 l0 -20.8 -5 0 -5 0 0 22.3 c0 21.2 0.1 22.4 2.4 27.2 2.6 5.7 4.7 7.8 9.6 9.9 4.5 1.9 8.2 2 12.3 0.2z m102.5 -0.5 c1.7 -0.9 2.2 -2 2.2 -5.2 0 -3.8 -0.1 -3.9 -2.7 -3.2 -5.5 1.5 -17.6 0.9 -22.2 -1.1 -7.9 -3.6 -11.7 -14.7 -9.1 -26.9 1.5 -7.3 4.7 -11.1 11.2 -13.3 5.1 -1.6 16.9 -1.6 21.1 0.1 1.5 0.6 1.7 0.1 1.7 -3.9 0 -4.1 -0.3 -4.6 -2.7 -5.3 -1.6 -0.5 -6.4 -0.8 -10.8 -0.8 -10 0.1 -16.7 2.8 -22.6 9.2 -19.4 21.1 -4.1 53.5 24.6 52 3.9 -0.2 8 -0.9 9.3 -1.6z m114.5 0.8 l5.7 -1.2 0 -4.3 0 -4.4 -4.2 0.7 c-2.4 0.5 -8.1 0.8 -12.9 0.8 -9.4 -0.1 -13.5 -1.7 -17.2 -6.8 -2 -2.6 -2 -2.9 -0.6 -7 l1.6 -4.2 19.6 -0.3 19.7 -0.2 0 -3.8 c0 -6 -2.8 -15 -6 -19.8 -8.3 -11.9 -25.3 -13.7 -36.9 -3.8 -2.2 2 -5.9 6.6 -8.1 10.4 -2.2 3.8 -4.6 7.1 -5.2 7.4 -0.9 0.3 -0.8 0.9 0.6 2 2.3 1.9 1.3 3.6 -2.3 3.6 -2.8 0 -2.8 -0.2 -3.5 -7.1 -1 -11.6 -4.4 -17.5 -12.1 -21 -7.3 -3.4 -14.3 -1.9 -20.3 4.4 l-3.3 3.4 7.9 -0.5 c6.1 -0.3 8.6 -0.1 11.1 1.2 5.5 2.9 6.1 5.9 6.1 29.6 l0 21 5.5 0 5.5 0 0 -15 0 -15 3.5 0 c3.2 0 3.5 0.3 3.5 2.9 0 7.1 5.9 17.6 12.4 22.1 8.4 5.7 18 7.3 29.9 4.9z m-377.5 -4.1 l-0.3 -4.3 -20.2 -0.3 -20.3 -0.2 0 -14.5 0 -14.5 16.5 0 16.5 0 0 -4 0 -4 -16.5 0 -16.5 0 0 -14 0 -14 20.3 -0.2 20.2 -0.3 0.3 -4.2 0.3 -4.3 -26 0 -26.1 0 0 41.5 0 41.5 26.1 0 26 0 -0.3 -4.2z m23.2 -37.3 l0 -41.5 -5 0 -5 0 0 41.5 0 41.5 5 0 5 0 0 -41.5z m167 11.5 l0 -30 -5.4 0 -5.5 0 -0.3 21.3 c-0.2 16.3 -0.6 21.8 -1.7 23 -1.2 1.5 -1.1 1.7 0.3 1.7 1.3 0 1.6 1.2 1.6 7 l0 7 5.5 0 5.5 0 0 -30z m22 6.6 l0 -23.5 2.7 -0.3 c2.2 -0.2 3.1 -1.3 4.9 -5.8 1.2 -3 2.5 -6.4 2.8 -7.4 0.4 -1.6 0.7 -1.7 2 -0.6 1.4 1.1 1.6 0.4 1.6 -6.5 0 -4.3 -0.2 -7.6 -0.4 -7.4 -2.4 2.4 -8.6 10.5 -8.6 11.1 0 0.5 0.6 0.8 1.4 0.8 1.2 0 1 1.1 -0.7 6 -1.2 3.3 -2.5 6 -3 6 -0.4 0 -1.2 -2 -1.9 -4.5 l-1.2 -4.5 -4.8 0 -4.8 0 0 30 0 30 5 0 5 0 0 -23.4z m71 4.2 c0.1 -13.5 0.5 -20.4 1.4 -23 1.2 -3.2 1.2 -3.8 0 -3.8 -1.1 0 -1.4 -3.4 -1.4 -18.6 l0 -18.5 -5.2 0.3 -5.3 0.3 -0.1 38 c0 20.9 0.2 39.5 0.4 41.3 0.4 3.1 0.6 3.2 5.3 3.2 l4.9 0 0 -19.2z m50.3 -22.4 c-0.3 -0.8 -0.9 -1.4 -1.3 -1.4 -1.3 0 -2.2 1.9 -1.5 3 0.9 1.4 3.4 0 2.8 -1.6z m-443.3 -27.7 l0 -20.3 -16.2 -10.4 -16.3 -10.5 -0.3 -4.7 c-0.3 -4.5 -0.2 -4.7 4.2 -7.7 16.7 -11.5 28.6 -39.3 28.6 -66.9 0 -42.7 -22 -79.5 -57.2 -95.5 -15.5 -7.1 -37.2 -11.5 -50.3 -10.2 -21.6 2 -44.5 10.7 -60.3 22.8 -50 38.5 -57.6 118.5 -16.1 170.2 29.9 37.1 88.2 47.4 124.5 22 10.6 -7.4 10 -7.6 36.4 13.5 12.4 9.9 22.6 18 22.8 18 0.1 0 0.2 -9.1 0.2 -20.3z m320 6.9 c0 -0.8 -0.4 -1.7 -0.8 -2 -1.3 -0.8 -3.5 1.1 -2.8 2.3 1 1.6 3.6 1.4 3.6 -0.3z m-2.4 -4.7 c0.3 -0.6 0.2 -1.5 -0.2 -1.9 -1.2 -1.2 -3.8 0.5 -3 1.9 0.9 1.4 2.3 1.4 3.2 0z m-2.2 -6.4 c-0.3 -0.8 0.6 -1.9 2.2 -2.7 1.5 -0.7 3.6 -2.5 4.7 -3.9 1.8 -2.5 1.8 -2.8 0.3 -5.1 -0.9 -1.4 -2.7 -3 -4.1 -3.6 -2.1 -1 -2.9 -0.8 -5.5 1.4 -3.7 3.1 -3.8 5.7 -0.4 9 2.3 2.4 2.4 2.7 0.8 3.8 -0.9 0.7 -1.4 1.8 -1 2.4 0.9 1.5 3.6 0.4 3 -1.3z m163.9 -8.5 l3.8 -7 -3.9 0 c-3.8 0 -3.9 0.1 -5.6 5.8 -1 3.1 -2.1 6.3 -2.3 7 -0.3 0.7 0.4 1.2 1.8 1.2 1.9 0 3.2 -1.4 6.2 -7z m-774.9 -2.1 c10 -3.7 16.4 -9.9 21.4 -20.6 l2.7 -5.8 0.6 -44 c0.4 -31.6 0.9 -45.1 1.8 -47.9 1.8 -5.6 5.5 -11 9.1 -13.6 7 -5 20.4 -6.4 32.9 -3.5 3.5 0.9 6.5 1.4 6.6 1.3 0.3 -0.6 6.8 -23.3 6.9 -24.3 0.1 -1.1 -14.1 -4.3 -19.9 -4.4 -9.6 -0.2 -20.8 9.1 -27.2 22.4 -3.5 7.4 -3.6 7.5 -7.4 7.5 l-3.9 0 0 -14 0 -14 -13 0 -13 0 0 66.3 c0 75.7 0.6 70.7 -8.2 70.7 -9.4 0 -8.8 3.5 -8.8 -51 0 -38.8 0.3 -47.9 1.3 -48.3 1.2 -0.5 2 -2.1 5.7 -12.1 0.9 -2.3 1.3 -2.6 2.5 -1.6 1.3 1.1 1.5 0.2 1.5 -6.5 0 -4.3 -0.2 -7.6 -0.4 -7.4 -2.4 2.4 -8.6 10.5 -8.6 11.1 0 0.5 0.7 0.8 1.5 0.8 1.2 0 1.2 0.7 -0.3 4.5 -2.1 5.6 -3.9 5.5 -5.9 -0.4 -0.8 -2.5 -2.5 -6.1 -3.7 -8 -1.3 -2 -2.6 -4.6 -3 -5.8 -0.4 -1.3 -1.2 -2.3 -1.7 -2.3 -0.5 0 -2.9 -1.5 -5.4 -3.4 -10.1 -7.8 -25.1 -10.5 -36.5 -6.6 -12.5 4.2 -19.3 10.1 -25.6 22.5 -2.8 5.5 -3.3 6 -6.7 6.3 l-3.7 0.3 0 -37 0 -37.1 -13.5 0 -13.5 0 -0.1 13.3 c0 7.2 -0.4 12.4 -0.7 11.4 -0.6 -1.4 -1.4 -0.8 -4.7 3.3 -4.7 5.9 -5.2 7 -3.2 7 1.3 0 1.2 0.9 -0.6 6 -1.2 3.3 -2.5 6 -2.8 6 -0.3 0 -1.3 -1.8 -2.2 -4 -1.1 -2.8 -2 -3.8 -3 -3.4 -1.2 0.4 -1.1 1.4 0.7 6 1.8 4.7 2.4 5.4 4.5 5.2 2 -0.2 3 -1.5 4.7 -5.8 1.2 -3 2.5 -6.4 2.8 -7.4 0.4 -1.6 0.7 -1.7 2 -0.6 1.4 1 1.6 0.9 1.8 -0.6 0.2 -1.1 0.5 28.9 0.8 66.6 l0.5 68.5 13.3 0.3 13.2 0.3 0 -36.3 c0 -37.4 0.7 -46.3 4 -52.8 5.1 -10 13 -14.2 27.6 -14.8 16.5 -0.7 23.7 2.5 28.1 12.3 1.6 3.6 1.8 8.5 2.3 51.5 0.5 46.9 0.5 47.6 2.9 53.3 2.8 7 11.4 16.3 18.2 19.5 9.1 4.4 15.8 4.7 25.3 1.1z m487.6 -10.3 c0 -0.8 -0.4 -1.7 -0.8 -2 -1.3 -0.8 -3.5 1.1 -2.8 2.3 1 1.6 3.6 1.4 3.6 -0.3z m-2.4 -4.7 c0.3 -0.6 0.2 -1.5 -0.2 -1.9 -1.2 -1.2 -3.8 0.5 -3 1.9 0.9 1.4 2.3 1.4 3.2 0z m-2.3 -6.5 c-0.3 -0.8 -0.9 -1.4 -1.3 -1.4 -1.3 0 -2.2 1.9 -1.5 3 0.9 1.4 3.4 0 2.8 -1.6z m-113.7 -11.4 c1.2 -3 2.5 -6.4 2.8 -7.4 0.4 -1.6 0.7 -1.7 2 -0.6 1.4 1.1 1.6 0.4 1.6 -6.5 0 -4.3 -0.2 -7.6 -0.4 -7.4 -2.4 2.4 -8.6 10.5 -8.6 11.1 0 0.5 0.6 0.8 1.4 0.8 1.2 0 1 1.1 -0.7 6 -1.2 3.3 -2.5 6 -2.8 6 -0.3 0 -1.3 -1.8 -2.2 -4 -1.1 -2.8 -2 -3.8 -3 -3.4 -1.2 0.4 -1.1 1.4 0.7 6 1.8 4.7 2.4 5.4 4.5 5.2 2 -0.2 3 -1.5 4.7 -5.8z m147.5 3.1 c8.2 -3.1 12.9 -8.8 12.9 -15.5 l0 -3.6 7 0 7 0 0 -30 0 -30 -5.5 0 -5.5 0 0 28.5 0 28.5 -3.2 0 c-1.7 0 -3.9 -0.7 -4.9 -1.6 -3.7 -3.3 -9.1 -4.3 -23.6 -4.4 -7.8 0 -15.3 -0.4 -16.7 -1 -2.4 -0.9 -2.6 -1.5 -2.6 -6.5 0 -3 -0.3 -5.5 -0.7 -5.5 -1.3 0.1 -5 3.5 -6.2 5.8 -1.5 2.9 0.9 7.7 5 10 4.4 2.6 4 6.6 -1.1 10.9 -2.2 1.9 -4 4.1 -4 4.9 0 0.8 1.5 3.1 3.3 5.1 6.6 7.1 25.8 9.3 38.8 4.4z m-157.1 -12.5 c0 -0.8 -0.4 -1.7 -0.8 -2 -1.3 -0.8 -3.5 1.1 -2.8 2.3 1 1.6 3.6 1.4 3.6 -0.3z m-2.4 -5.1 c0.4 -0.9 1.9 -1.5 4 -1.5 l3.4 0 0 -19 0 -19 6.9 0 c8.3 0 6.7 -1.7 21.1 21.4 l10.5 16.6 4.2 0 c2.4 0 4.3 -0.3 4.3 -0.6 0 -1.9 -13.9 -23.5 -17.2 -26.6 -3.1 -3.1 -3.8 -4.4 -3.8 -7.6 0 -3.6 0.3 -4 4 -5.7 4.8 -2.2 10.6 -8.2 12.7 -13.3 3.1 -7.5 1 -17.4 -4.9 -22.9 -1.2 -1.2 -4.3 -3.1 -6.8 -4.2 -4 -1.8 -6.5 -2.1 -23.2 -2.1 l-18.8 0 0 38.3 c0 26.1 -0.3 38.6 -1.1 39.4 -0.7 0.7 -0.7 1.7 -0.1 2.9 0.6 1.1 1.3 2.7 1.6 3.7 0.7 2.1 2.5 2.2 3.2 0.2z m100.4 -1.8 l5.5 -1.2 0.3 -4.1 0.3 -4.1 -12.8 0.4 c-11.2 0.4 -13.2 0.2 -16.3 -1.5 -4.8 -2.6 -8 -7.6 -8 -12.3 l0 -3.9 21.5 0 21.5 0 0 -5.5 0 -5.5 3.5 0 c1.9 0 3.5 0.4 3.5 1 0 0.5 1.4 2.5 3 4.3 1.7 1.9 3 4.6 3 6 0 2.6 -0.1 2.6 14.1 4.4 9.1 1.1 19.1 -4.4 23.3 -12.9 2.4 -4.9 2.6 -6.1 2.6 -19.5 l0 -14.3 -4 0 -4 0 0 7 0 7 -3.1 0 c-2.1 0 -4.3 -1 -6.6 -3 -4.3 -3.8 -9.4 -4.2 -16.3 -1.3 -6.9 2.8 -12.9 11 -13 17.6 0 2.4 -0.4 2.7 -3.4 2.7 -3.2 0 -3.5 -0.3 -5 -4.8 -4.8 -14.4 -20.1 -21.2 -33.8 -15 -15.9 7.3 -22.7 26.7 -14.7 42.3 7.2 13.9 21.4 19.8 38.9 16.2z m138.6 -2.7 c7.2 -3.5 11.7 -8.2 15.2 -15.9 6.7 -14.7 -0.7 -32.6 -16.5 -39.8 -18.6 -8.5 -41.2 5.4 -43 26.6 -0.7 7.5 2.3 15.4 8.4 22.1 10 11.1 22.5 13.6 35.9 7z m109.4 3 c1.9 -0.5 4.8 -2 6.3 -3.2 l2.8 -2.3 -7.4 0 c-10.2 0 -11.7 -1.4 -11.7 -10.4 0 -3.6 0.5 -7.3 1 -8.1 0.7 -1.2 3.8 -1.6 14.6 -1.8 l13.6 -0.4 -0.4 5.9 c-0.2 3.2 -0.8 6.6 -1.2 7.6 -0.6 1.2 -0.4 1.7 0.8 1.7 1.3 0 1.6 1.1 1.6 5.5 l0 5.5 5.1 0 5.1 0 -0.4 -22.7 c-0.3 -24 -0.7 -26 -5.7 -31.7 -2.4 -2.7 -8.4 -5.5 -14.2 -6.6 -5.2 -1 -16.3 0 -22.6 2.1 -3.1 1 -3.3 1.4 -3.3 5.5 0 4.3 0 4.3 2.8 3.3 3.5 -1.4 19.8 -2.4 24.4 -1.5 6.2 1.1 7.8 3.6 7.8 12 l0 7.4 -12.2 0.4 c-9.5 0.3 -13.3 0.9 -16.8 2.5 -12.1 5.4 -14.3 17.6 -4.8 25.7 5.2 4.5 8.7 5.3 14.8 3.6z m110 -1.5 c3.2 -1.7 9 -6.4 9 -7.3 0 -0.4 -4.9 -0.7 -10.9 -0.7 -10.3 0 -11.1 -0.1 -13.6 -2.5 -3.8 -3.6 -5.3 -6.8 -6 -13.6 -1.4 -12 2.7 -21.9 10.2 -25 3.8 -1.6 15 -1.8 18.8 -0.4 2.3 0.9 2.4 0.8 1.6 -0.8 -2.4 -4.6 -11.2 -9.2 -17.3 -9.2 -16.6 0.1 -27.7 20.7 -22.3 41.4 4.2 16.1 18.3 24.4 30.5 18.1z m79 1.2 l5.5 -1.2 0.3 -4.7 0.3 -4.7 -3.3 1 c-1.8 0.5 -7.1 0.9 -11.7 0.9 -6.6 0 -8.1 -0.3 -7.3 -1.3 0.9 -1 3.1 -6.3 5.6 -13.1 0.5 -1.5 0.9 -1.6 2.1 -0.6 1.2 1 1.5 0.9 1.5 -0.9 0 -2 0.5 -2.1 9.5 -2.1 l9.5 0 0 -3.8 c0 -2.1 -0.7 -6.3 -1.5 -9.5 -5.8 -22.2 -28.9 -28.1 -44.3 -11.3 -11.2 12.3 -11.3 29.6 -0.3 41.8 8.5 9.5 19.5 12.5 34.1 9.5z m-262 -19.6 c0 -11.7 0.4 -21.1 1.1 -22.8 0.7 -1.9 0.7 -2.9 0 -3.1 -0.7 -0.2 -1.1 -3.3 -1.1 -7.3 l0 -6.9 -5.5 0 -5.5 0 0 29.3 c0 16.2 0.3 29.7 0.7 30 0.3 0.4 2.8 0.7 5.5 0.7 l4.8 0 0 -19.9z m44 -2.9 c0 -21.6 -0.1 -23 -2.2 -27.2 -6 -11.7 -19.6 -14.5 -29.1 -6.1 -4.7 4 -4 4.6 4.6 4.3 15.7 -0.5 16.7 1.4 16.7 30.6 l0 21.2 5 0 5 0 0 -22.8z m81 -5.3 c0 -18.4 0.3 -27.8 1 -27.4 0.6 0.4 1 -2.2 1 -7 0 -4.8 -0.4 -7.4 -1 -7 -0.6 0.4 -1 -2 -1 -6.4 l0 -7.1 -5.5 0 -5.5 0 0 15.7 c0 11.6 -0.3 15.4 -1.1 14.6 -0.6 -0.6 -1.7 -0.9 -2.4 -0.7 -1 0.4 -0.7 2 1.1 6.4 2.3 5.6 2.4 7.1 2.4 26.5 l0 20.5 5.5 0 5.5 0 0 -28.1z m87 -13.4 l0 -41.5 -5 0 -5 0 0 17.5 0 17.5 -3 0 -2.9 0 2.3 3.5 c4.2 6.1 4.3 23.9 0.1 28.5 -2.1 2.3 -1.9 3 1 3 2.4 0 2.5 0.2 2.5 6.5 l0 6.5 5 0 5 0 0 -41.5z m-101 -15.9 c0 -0.8 -0.4 -1.7 -0.8 -2 -1.3 -0.8 -3.5 1.1 -2.8 2.3 1 1.6 3.6 1.4 3.6 -0.3z m-2.4 -4.7 c0.3 -0.6 0.2 -1.5 -0.2 -1.9 -1.2 -1.2 -3.8 0.5 -3 1.9 0.9 1.4 2.3 1.4 3.2 0z m-2.3 -6.5 c-0.3 -0.8 -0.9 -1.4 -1.3 -1.4 -1.3 0 -2.2 1.9 -1.5 3 0.9 1.4 3.4 0 2.8 -1.6z m-196.2 -10.3 c1.6 -1.6 2.9 -3.5 2.9 -4.1 0 -1.6 -5.5 -7 -7.2 -7 -2 0 -6.8 4.8 -6.8 6.9 0 2.3 4.4 7.1 6.5 7.1 0.9 0 3 -1.3 4.6 -2.9z m-45.5 -33.1 c1.2 -3 2.5 -6.4 2.8 -7.4 0.4 -1.6 0.7 -1.7 2 -0.6 1.4 1.1 1.6 0.4 1.6 -5.8 l0 -7.1 9.3 0.2 c11.5 0.3 17.4 -1.4 23.2 -6.5 5.5 -4.9 7.3 -10 5.1 -15.1 -1.8 -4.5 -5.3 -7 -13.9 -10.3 -12 -4.4 -17.1 -6.6 -18.4 -7.6 -0.8 -0.6 -1.3 -3.3 -1.3 -6.5 0 -5.3 0.1 -5.4 3.8 -7 2.8 -1.2 5.7 -1.4 12.7 -1 5 0.4 10.2 0.9 11.8 1.3 2.6 0.6 2.7 0.5 2.7 -3.3 l0 -4 -5.7 -1.2 c-8 -1.6 -12.2 -1.4 -19.8 1 -10.7 3.3 -17.1 11.4 -15.1 19.1 1.9 7.3 7.2 11.3 21.1 15.8 11.3 3.7 12.5 4.6 12.5 10.1 0 2.6 -0.6 5.1 -1.2 5.7 -3.1 2.4 -24.4 2.2 -31.1 -0.4 -1.4 -0.5 -1.7 0 -1.7 3.4 0 3.5 0.4 4.2 2.6 4.9 l2.6 0.9 -4.1 4.9 c-4.4 5.4 -4.9 6.5 -2.7 6.5 1.2 0 1 1.1 -0.7 6 -1.2 3.3 -2.5 6 -2.8 6 -0.3 0 -1.3 -1.8 -2.2 -4 -1.1 -2.8 -2 -3.8 -3 -3.4 -1.2 0.4 -1.1 1.4 0.7 6 1.8 4.7 2.4 5.4 4.5 5.2 2 -0.2 3 -1.5 4.7 -5.8z m64.4 -19 c0 -15.4 0.1 -16 2 -16 l2 0 -2 -4 c-2.9 -5.6 -2.9 -19.9 0 -25.3 2 -3.7 2 -3.7 0 -3.7 -1.7 0 -1.9 -0.8 -2.2 -6.7 l-0.3 -6.8 -5.2 -0.3 -5.3 -0.3 0 39.5 0 39.6 5.5 0 5.5 0 0 -16z m-714 9.6 c0 -0.8 -0.4 -1.7 -0.8 -2 -1.3 -0.8 -3.5 1.1 -2.8 2.3 1 1.6 3.6 1.4 3.6 -0.3z m640 0 c0 -0.8 -0.4 -1.7 -0.8 -2 -1.3 -0.8 -3.5 1.1 -2.8 2.3 1 1.6 3.6 1.4 3.6 -0.3z m-642.4 -4.7 c0.3 -0.6 0.2 -1.5 -0.2 -1.9 -1.2 -1.2 -3.8 0.5 -3 1.9 0.9 1.4 2.3 1.4 3.2 0z m640 0 c0.3 -0.6 0.2 -1.5 -0.2 -1.9 -1.2 -1.2 -3.8 0.5 -3 1.9 0.9 1.4 2.3 1.4 3.2 0z m-642.3 -6.5 c-0.3 -0.8 -0.9 -1.4 -1.3 -1.4 -1.3 0 -2.2 1.9 -1.5 3 0.9 1.4 3.4 0 2.8 -1.6z m640 0 c-0.3 -0.8 -0.9 -1.4 -1.3 -1.4 -1.3 0 -2.2 1.9 -1.5 3 0.9 1.4 3.4 0 2.8 -1.6z m-16.8 -0.9 c23.3 -6 32.2 -32.5 17 -50.3 -4 -4.7 -13.5 -9.8 -20 -10.8 -10.9 -1.6 -25.4 6.7 -31.3 18 -2.2 4.3 -2.7 6.4 -2.7 13.1 0 9.6 2.7 15.7 9.8 22.2 5.4 4.9 7.1 5.9 13.9 7.7 6.8 1.9 6.3 1.9 13.3 0.1z m126.2 0 c6.6 -1.9 13.4 -8 16.1 -14.3 4.3 -9.9 4.5 -22.6 0.7 -31.8 -3.3 -7.9 -13.5 -15.4 -20.9 -15.4 -3.2 0 -11.8 4.4 -14.8 7.6 l-2.7 2.9 9.4 -0.3 c11 -0.5 15.2 1 18.7 6.7 2 3.1 2.3 4.9 2.3 13.6 0 17 -4 21.8 -18.6 22.3 -5.4 0.3 -9.5 -0.1 -10.9 -0.8 -2 -1.1 -2.1 -1 -1.1 0.9 1.7 3.1 7.6 7.4 11.8 8.8 4.9 1.5 4.2 1.5 10 -0.2z m105 0 c2.7 -0.8 5.8 -2.3 6.7 -3.4 1.7 -1.9 1.7 -1.9 -2.3 -1.4 -5.4 0.7 -10.8 -0.4 -13.2 -2.8 -1.5 -1.5 -1.9 -3.3 -1.9 -8.2 0 -9.6 1 -10.2 16.8 -10.2 l12.7 0 0.3 3.6 c0.2 2 -0.3 5.4 -1.1 7.7 -1.2 3.6 -1.3 4.2 -0.1 4.2 1 0 1.4 1.4 1.4 5 l0 5 5.5 0 5.5 0 0 -18.8 c0 -27.1 -2.1 -33.7 -12.5 -38.8 -7.2 -3.5 -13.7 -4 -24.5 -1.9 l-9 1.7 0 4.5 c0 4.3 0.1 4.5 2.3 3.8 1.2 -0.4 7.7 -1 14.4 -1.2 l12.2 -0.5 3.1 3 c2.8 2.8 3 3.6 3 10 l0 7 -12.8 0.4 c-11.4 0.3 -13.5 0.7 -17.8 2.9 -6.4 3.3 -9.4 7.7 -9.4 13.9 0 4.1 0.5 5.3 3.8 8.9 2 2.4 5.5 4.8 7.7 5.6 2.2 0.8 4 1.4 4.1 1.5 0 0 2.3 -0.7 5.1 -1.5z m-28.9 -0.1 c1.6 -0.5 2.2 -1.4 2.2 -3.5 l0 -2.8 -7.7 -0.3 -7.8 -0.3 -1.2 -3.5 c-0.7 -2.2 -1.2 -10.6 -1.2 -22.7 l-0.1 -19.3 9 0 9 0 0 -4 0 -4 -9 0 -9 0 0 -9 0 -9 -5 0 -5.1 0 0.3 34.4 c0.3 33.2 0.4 34.6 2.4 37.3 3.9 5.2 8.1 7.3 14.8 7.3 3.4 0 7.1 -0.3 8.4 -0.6z m-303.8 -2.3 c0 -1 0.6 -2.1 1.3 -2.4 1.2 -0.5 2 -2.1 5.7 -12.1 0.9 -2.3 1.3 -2.6 2.5 -1.6 1.3 1.1 1.5 0.2 1.5 -6.5 0 -4.3 -0.2 -7.6 -0.4 -7.4 -2.4 2.4 -8.6 10.5 -8.6 11.1 0 0.5 0.7 0.8 1.5 0.8 1.3 0 1.3 0.4 0.2 3.2 -0.7 1.7 -1.8 3.3 -2.5 3.6 -0.9 0.3 -1.2 -2.7 -1.2 -11.7 l0 -12.1 21 0 21 0 0 18.5 0 18.5 5.5 0 5.5 0 0 -41 0 -41 -5.5 0 -5.5 0 0 18 0 18 -21 0 -21 0 0 -18 0 -18 -5.5 0 -5.5 0 0 24.8 c0 18 -0.3 25.1 -1.2 26 -0.9 0.9 -0.9 1.5 0 2.4 0.8 0.8 1.2 5.6 1.2 15 l0 13.8 5.5 0 c4.7 0 5.5 -0.3 5.5 -1.9z m266 -28.1 l0 -30 -5.5 0 -5.5 0 0 30 0 30 5.5 0 5.5 0 0 -30z m118 -3.9 c0 -27.2 0.3 -34 1.3 -34.4 1.2 -0.5 2 -2.1 5.7 -12.1 0.9 -2.3 1.3 -2.6 2.5 -1.6 1.3 1.1 1.5 0.2 1.5 -6.5 0 -4.3 -0.2 -7.6 -0.4 -7.4 -2.4 2.4 -8.6 10.5 -8.6 11.1 0 0.5 0.7 0.8 1.5 0.8 1.3 0 1.3 0.4 0.2 3.2 -1.7 4 -3.7 4.8 -3.7 1.4 0 -2.1 -0.5 -2.6 -2.4 -2.6 -1.5 0 -2.6 -0.7 -2.9 -2 -0.3 -1.4 -1 -1.8 -2.2 -1.4 -0.9 0.4 -1.4 1.3 -1.1 2 0.3 0.8 0.1 1.4 -0.4 1.4 -0.6 0 -1 15.2 -1 41 l0 41 5 0 5 0 0 -33.9z m-859.6 -16.5 c8.4 -4.9 13.7 -15.8 11.6 -23.6 -2.3 -8.5 -12.4 -17.6 -20.7 -18.7 -9 -1.2 -20.6 7.5 -23.9 18 -1.6 5.3 -1.6 5.8 0.1 10.4 2.4 6.2 5.6 10.4 10.5 13.7 7.6 5 14.1 5.1 22.4 0.2z m739.5 -27.2 c3.7 -3.1 3.9 -5.7 0.6 -8.9 -3.2 -3.3 -5 -3.1 -8.6 0.5 -2.9 2.8 -2.9 3 -1.4 5.9 1.4 2.7 3.9 5 5.7 5.1 0.3 0 2 -1.2 3.7 -2.6z m112.7 -10.5 c0.3 -0.6 0.2 -1.5 -0.2 -1.9 -1.2 -1.2 -3.8 0.5 -3 1.9 0.9 1.4 2.3 1.4 3.2 0z m-2.3 -6.5 c-0.3 -0.8 -0.9 -1.4 -1.3 -1.4 -1.3 0 -2.2 1.9 -1.5 3 0.9 1.4 3.4 0 2.8 -1.6z m-113.7 -171.4 c1.2 -3 2.5 -6.4 2.8 -7.4 0.4 -1.6 0.7 -1.7 2 -0.6 1.4 1.1 1.6 0.4 1.6 -6.5 0 -4.3 -0.2 -7.6 -0.4 -7.4 -2.4 2.4 -8.6 10.5 -8.6 11.1 0 0.5 0.6 0.8 1.4 0.8 1.2 0 1 1.1 -0.7 6 -1.2 3.3 -2.5 6 -2.8 6 -0.3 0 -1.3 -1.8 -2.2 -4 -1.1 -2.8 -2 -3.8 -3 -3.4 -1.2 0.4 -1.1 1.4 0.7 6 1.8 4.7 2.4 5.4 4.5 5.2 2 -0.2 3 -1.5 4.7 -5.8z m-9.6 -9.4 c0 -0.8 -0.4 -1.7 -0.8 -2 -1.3 -0.8 -3.5 1.1 -2.8 2.3 1 1.6 3.6 1.4 3.6 -0.3z m-2.4 -4.7 c0.3 -0.6 0.2 -1.5 -0.2 -1.9 -1.2 -1.2 -3.8 0.5 -3 1.9 0.9 1.4 2.3 1.4 3.2 0z m-2.3 -6.5 c-0.3 -0.8 -0.9 -1.4 -1.3 -1.4 -1.3 0 -2.2 1.9 -1.5 3 0.9 1.4 3.4 0 2.8 -1.6z m-369.7 -75.4 c1.2 -3 2.5 -6.4 2.8 -7.4 0.4 -1.6 0.7 -1.7 2 -0.6 1.4 1.1 1.6 0.4 1.6 -6.5 0 -4.3 -0.2 -7.6 -0.4 -7.4 -2.4 2.4 -8.6 10.5 -8.6 11.1 0 0.5 0.6 0.8 1.4 0.8 1.2 0 1 1.1 -0.7 6 -1.2 3.3 -2.5 6 -2.8 6 -0.3 0 -1.3 -1.8 -2.2 -4 -1.1 -2.8 -2 -3.8 -3 -3.4 -1.2 0.4 -1.1 1.4 0.7 6 1.8 4.7 2.4 5.4 4.5 5.2 2 -0.2 3 -1.5 4.7 -5.8z m-9.6 -9.4 c0 -0.8 -0.4 -1.7 -0.8 -2 -1.3 -0.8 -3.5 1.1 -2.8 2.3 1 1.6 3.6 1.4 3.6 -0.3z m-2.4 -4.7 c0.3 -0.6 0.2 -1.5 -0.2 -1.9 -1.2 -1.2 -3.8 0.5 -3 1.9 0.9 1.4 2.3 1.4 3.2 0z m-2.3 -6.5 c-0.3 -0.8 -0.9 -1.4 -1.3 -1.4 -1.3 0 -2.2 1.9 -1.5 3 0.9 1.4 3.4 0 2.8 -1.6z m398.3 -43.4 c1.2 -3 2.5 -6.4 2.8 -7.4 0.4 -1.6 0.7 -1.7 2 -0.6 1.4 1.1 1.6 0.4 1.6 -6.5 0 -4.3 -0.2 -7.6 -0.4 -7.4 -2.4 2.4 -8.6 10.5 -8.6 11.1 0 0.5 0.6 0.8 1.4 0.8 1.2 0 1 1.1 -0.7 6 -1.2 3.3 -2.5 6 -2.8 6 -0.3 0 -1.3 -1.8 -2.2 -4 -1.1 -2.8 -2 -3.8 -3 -3.4 -1.2 0.4 -1.1 1.4 0.7 6 1.8 4.7 2.4 5.4 4.5 5.2 2 -0.2 3 -1.5 4.7 -5.8z m-9.6 -9.4 c0 -0.8 -0.4 -1.7 -0.8 -2 -1.3 -0.8 -3.5 1.1 -2.8 2.3 1 1.6 3.6 1.4 3.6 -0.3z m-2.4 -4.7 c0.3 -0.6 0.2 -1.5 -0.2 -1.9 -1.2 -1.2 -3.8 0.5 -3 1.9 0.9 1.4 2.3 1.4 3.2 0z m-2.3 -6.5 c-0.3 -0.8 -0.9 -1.4 -1.3 -1.4 -1.3 0 -2.2 1.9 -1.5 3 0.9 1.4 3.4 0 2.8 -1.6z m-625.7 -139.4 c1.2 -3 2.5 -6.4 2.8 -7.4 0.4 -1.6 0.7 -1.7 2 -0.6 1.4 1.1 1.6 0.4 1.6 -6.5 0 -4.3 -0.2 -7.6 -0.4 -7.4 -2.4 2.4 -8.6 10.5 -8.6 11.1 0 0.5 0.6 0.8 1.4 0.8 1.2 0 1 1.1 -0.7 6 -1.2 3.3 -2.5 6 -2.8 6 -0.3 0 -1.3 -1.8 -2.2 -4 -1.1 -2.8 -2 -3.8 -3 -3.4 -1.2 0.4 -1.1 1.4 0.7 6 1.8 4.7 2.4 5.4 4.5 5.2 2 -0.2 3 -1.5 4.7 -5.8z m-9.6 -9.4 c0 -0.8 -0.4 -1.7 -0.8 -2 -1.3 -0.8 -3.5 1.1 -2.8 2.3 1 1.6 3.6 1.4 3.6 -0.3z m-2.4 -4.7 c0.3 -0.6 0.2 -1.5 -0.2 -1.9 -1.2 -1.2 -3.8 0.5 -3 1.9 0.9 1.4 2.3 1.4 3.2 0z m-2.3 -6.5 c-0.3 -0.8 -0.9 -1.4 -1.3 -1.4 -1.3 0 -2.2 1.9 -1.5 3 0.9 1.4 3.4 0 2.8 -1.6z m526.3 -11.4 c1.2 -3 2.5 -6.4 2.8 -7.4 0.4 -1.6 0.7 -1.7 2 -0.6 1.4 1.1 1.6 0.4 1.6 -6.5 0 -4.3 -0.2 -7.6 -0.4 -7.4 -2.4 2.4 -8.6 10.5 -8.6 11.1 0 0.5 0.6 0.8 1.4 0.8 1.2 0 1 1.1 -0.7 6 -1.2 3.3 -2.5 6 -2.8 6 -0.3 0 -1.3 -1.8 -2.2 -4 -1.1 -2.8 -2 -3.8 -3 -3.4 -1.2 0.4 -1.1 1.4 0.7 6 1.8 4.7 2.4 5.4 4.5 5.2 2 -0.2 3 -1.5 4.7 -5.8z m-9.6 -9.4 c0 -0.8 -0.4 -1.7 -0.8 -2 -1.3 -0.8 -3.5 1.1 -2.8 2.3 1 1.6 3.6 1.4 3.6 -0.3z m-2.4 -4.7 c0.3 -0.6 0.2 -1.5 -0.2 -1.9 -1.2 -1.2 -3.8 0.5 -3 1.9 0.9 1.4 2.3 1.4 3.2 0z m-2.3 -6.5 c-0.3 -0.8 -0.9 -1.4 -1.3 -1.4 -1.3 0 -2.2 1.9 -1.5 3 0.9 1.4 3.4 0 2.8 -1.6z m-753.7 -11.4 c1.2 -3 2.5 -6.4 2.8 -7.4 0.4 -1.6 0.7 -1.7 2 -0.6 1.4 1.1 1.6 0.4 1.6 -6.5 0 -4.3 -0.2 -7.6 -0.4 -7.4 -2.4 2.4 -8.6 10.5 -8.6 11.1 0 0.5 0.6 0.8 1.4 0.8 1.2 0 1 1.1 -0.7 6 -1.2 3.3 -2.5 6 -2.8 6 -0.3 0 -1.3 -1.8 -2.2 -4 -1.1 -2.8 -2 -3.8 -3 -3.4 -1.2 0.4 -1.1 1.4 0.7 6 1.8 4.7 2.4 5.4 4.5 5.2 2 -0.2 3 -1.5 4.7 -5.8z m-9.6 -9.4 c0 -0.8 -0.4 -1.7 -0.8 -2 -1.3 -0.8 -3.5 1.1 -2.8 2.3 1 1.6 3.6 1.4 3.6 -0.3z m-2.4 -4.7 c0.3 -0.6 0.2 -1.5 -0.2 -1.9 -1.2 -1.2 -3.8 0.5 -3 1.9 0.9 1.4 2.3 1.4 3.2 0z m-2.3 -6.5 c-0.3 -0.8 -0.9 -1.4 -1.3 -1.4 -1.3 0 -2.2 1.9 -1.5 3 0.9 1.4 3.4 0 2.8 -1.6z"/>
  <path d="M905.1 964.3 c-4 -0.8 -9.9 -5.1 -13.1 -9.5 -3.4 -4.6 -4.8 -8.9 -5.7 -16.6 l-0.6 -5.3 3.7 0.3 c3 0.2 7.3 2.8 19.6 11.8 15.4 11.1 15.9 11.6 15.9 15.1 0.1 3.4 -0.1 3.7 -3.6 4.3 -4.1 0.6 -12.4 0.6 -16.2 -0.1z"/>
  <path d="M909.3 938.7 l-21.2 -15.2 -0.1 -4.3 c0 -7.2 4.8 -14.4 12.5 -18.5 5.8 -3.1 21.2 -3.1 27.1 0 9.3 4.9 13.5 13.3 14.2 28.5 0.4 9 0.1 11.7 -1.7 17.7 l-2.2 7.1 -3.7 -0.1 c-3.1 0 -6.9 -2.3 -24.9 -15.2z"/>
  <path d="M1179 935.4 l0 -5.7 -4 4.4 -3.9 4.4 -0.1 -4.6 c0 -5.2 3 -10.6 7 -12.6 3.2 -1.6 15.1 -1.7 18.5 -0.1 3.6 1.6 5.7 6.1 6.3 13.5 l0.5 6.3 -12.2 0 -12.1 0 0 -5.6z"/>
  <path d="M589.1 870.4 c-12.1 -3.3 -24.6 -12.4 -32.2 -23.5 -7.3 -10.7 -13.9 -31 -13.9 -42.5 0 -4.3 0.1 -4.4 3.1 -4.4 3.5 0 4.8 0.9 42.9 29 12.9 9.5 28.4 20.9 34.3 25.3 10.5 7.8 10.8 8.1 10.5 11.6 -0.3 3.2 -0.7 3.7 -4.3 4.7 -5.8 1.8 -33.6 1.6 -40.4 -0.2z"/>
  <path d="M619 817.4 c-75 -53.6 -73 -52.1 -73 -55.4 0 -1.5 1.5 -6.4 3.3 -10.8 8.4 -19.9 21.5 -32.2 40.3 -37.8 8.3 -2.5 31.5 -2.5 39.8 0 22.7 6.8 36.9 22.6 44.4 49.5 2.5 8.9 2.7 11.1 2.7 29.1 0 21.6 -1.3 28.9 -7.6 45 l-3.2 8 -4.1 -0.1 c-3.7 0 -7.5 -2.5 -42.6 -27.5z m41.6 6.6 c1.2 -3 2.5 -6.4 2.8 -7.4 0.4 -1.6 0.7 -1.7 2 -0.6 1.4 1.1 1.6 0.4 1.6 -6.5 0 -4.3 -0.2 -7.6 -0.4 -7.4 -2.4 2.4 -8.6 10.5 -8.6 11.1 0 0.5 0.6 0.8 1.4 0.8 1.2 0 1 1.1 -0.7 6 -1.2 3.3 -2.5 6 -2.8 6 -0.3 0 -1.3 -1.8 -2.2 -4 -1.1 -2.8 -2 -3.8 -3 -3.4 -1.2 0.4 -1.1 1.4 0.7 6 1.8 4.7 2.4 5.4 4.5 5.2 2 -0.2 3 -1.5 4.7 -5.8z m-9.6 -9.4 c0 -0.8 -0.4 -1.7 -0.8 -2 -1.3 -0.8 -3.5 1.1 -2.8 2.3 1 1.6 3.6 1.4 3.6 -0.3z m-2.4 -4.7 c0.3 -0.6 0.2 -1.5 -0.2 -1.9 -1.2 -1.2 -3.8 0.5 -3 1.9 0.9 1.4 2.3 1.4 3.2 0z m-2.3 -6.5 c-0.3 -0.8 -0.9 -1.4 -1.3 -1.4 -1.3 0 -2.2 1.9 -1.5 3 0.9 1.4 3.4 0 2.8 -1.6z"/>
  <path d="M910.7 854 c-6.6 -1.2 -7.7 -2.3 -7.7 -8 0 -8.3 -0.6 -8 15.9 -8 16.9 0 19.4 0.8 19.9 5.9 0.5 5.1 -0.5 7.6 -3.4 8.9 -3.4 1.6 -18.6 2.3 -24.7 1.2z"/>
  <path d="M784 780.1 l0 -15.1 11.3 0 c19.4 0 21.7 1.5 21.7 14.7 0 7.7 -0.2 8.5 -2.9 11.5 l-2.9 3.3 -13.6 0.3 -13.6 0.4 0 -15.1z"/>
  <path d="M906.7 808.2 c-2.4 -2.5 -2.7 -3.6 -2.7 -9.6 0 -7.8 0.9 -10 5 -12.1 3.3 -1.7 13.5 -2 17.4 -0.5 5.3 2 6.6 4.4 6.6 12.1 0 6.5 -0.2 7.3 -2.9 10 -2.8 2.8 -3.3 2.9 -11.8 2.9 -8.5 0 -9.1 -0.1 -11.6 -2.8z"/>
  <path d="M845.3 802.6 c0.7 -7 3.2 -12.3 6.8 -14.1 3.7 -2 16.1 -2 19.8 0 3.6 1.8 6.1 7.9 6.1 14.5 l0 5 -16.6 0 -16.7 0 0.6 -5.4z"/>
  <path d="M992 830.3 c-2.4 -0.9 -7 -5.5 -8.8 -8.8 -2.3 -4.2 -2.3 -19.8 0 -24 3.8 -7.1 8.7 -9.5 19.2 -9.5 14.4 0 20.6 6.4 20.6 21.4 0 9.7 -2.5 15.7 -7.9 19.3 -2.9 2 -4.6 2.3 -12.5 2.2 -5 0 -9.8 -0.3 -10.6 -0.6z"/>
  <path d="M1285 823.8 c-2.7 -4.4 -2.7 -10.8 -0.1 -10.8 1 0 2.1 0.7 2.5 1.5 0.3 0.8 1.2 1.5 2.1 1.5 0.8 0 1.5 -0.7 1.5 -1.5 0 -1.6 3.6 -2 7.6 -0.9 l2.2 0.6 -2.2 5.9 c-1.1 3.2 -2.4 5.9 -2.7 5.9 -0.3 0 -1.3 -1.8 -2.2 -4 -1.1 -2.8 -2 -3.8 -3 -3.4 -1.3 0.5 -1.4 1 -0.1 3.9 1.8 4.5 1.8 4.5 -1.1 4.5 -1.8 0 -3.1 -1 -4.5 -3.2z"/>
  <path d="M1284 806.9 c0 -0.6 0.6 -1.2 1.4 -1.5 0.8 -0.3 1.2 -1.2 0.9 -2 -0.3 -0.9 -1.2 -1.3 -1.9 -1 -1.9 0.7 -1.9 -4.4 0 -8.9 2 -4.7 6 -6.5 14.5 -6.5 11.7 0 14.9 3 15.9 14.7 l0.5 6.3 -4.2 0 c-4 0 -4.1 -0.1 -4.1 -3.2 l0 -3.3 -2.6 3.3 -2.6 3.3 -8.9 -0.2 c-4.9 -0.1 -8.9 -0.5 -8.9 -1z"/>
  <path d="M869 696.9 c-1.4 -0.6 -3.6 -2 -4.8 -3.2 -4.5 -4.2 -5.6 -7.6 -5.7 -17.2 0 -10.9 2 -15.8 8.1 -19.3 3.4 -2 5 -2.2 13.4 -2 8.2 0.3 10 0.6 12.9 2.7 5 3.6 7.1 9.1 7.1 18.6 0 15.4 -5.8 21.5 -20.5 21.4 -4.4 0 -9.1 -0.5 -10.5 -1z"/>
 </g>
 <g fill="#00396f">
  <path d="M767 1086.9 c0 -1.3 7.7 -22.4 9.1 -25.1 1.3 -2.4 5.6 -2.3 6.9 0.2 1.3 2.5 9 23.9 9 25.1 0 0.5 -1.1 0.9 -2.4 0.9 -1.8 0 -2.7 -0.9 -4 -4 -1.5 -3.9 -1.7 -4 -6.4 -4 -4.8 0 -4.9 0.1 -6.5 4 -1.1 2.9 -2.1 4 -3.6 4 -1.2 0 -2.1 -0.5 -2.1 -1.1z m14.3 -15.4 c-0.8 -2.5 -1.7 -4.5 -1.9 -4.5 -0.5 0 -3.4 6.9 -3.4 8.1 0 0.5 1.5 0.9 3.4 0.9 l3.5 0 -1.6 -4.5z"/>
  <path d="M795.6 1086.3 c-2.8 -1.5 -2.9 -1.6 -1.1 -2.9 2.2 -1.7 3.2 -1.7 4 -0.4 0.8 1.4 5.2 1.3 6.1 -0.1 0.8 -1.4 -1.4 -2.9 -4.2 -2.9 -2.8 0 -7.4 -3.7 -7.4 -5.9 0 -3 3.8 -6.1 7.5 -6.1 4.1 0 8.5 1.8 8.5 3.6 0 1.7 -3 2.6 -4.6 1.3 -1.5 -1.3 -5.9 -0.8 -5.9 0.6 0 0.6 2 1.7 4.5 2.5 6.1 2 7 2.7 7 5.6 0 5.7 -7.8 8.3 -14.4 4.7z"/>
  <path d="M813 1078.1 l0 -10.1 2.5 0 2.6 0 -0.3 9.8 c-0.3 9.2 -0.4 9.7 -2.5 10 -2.3 0.3 -2.3 0.1 -2.3 -9.7z"/>
  <path d="M823.3 1086.8 c-1.3 -0.6 -2.3 -1.7 -2.3 -2.3 0 -1.7 3.1 -2.8 4.4 -1.5 1.3 1.3 5.3 1.3 6.2 -0.1 0.8 -1.4 -1.4 -2.9 -4.2 -2.9 -1.2 0 -3.3 -1 -4.8 -2.1 -4.7 -3.7 -1.6 -9.8 5.1 -9.9 3.9 0 8.3 1.9 8.3 3.6 0 1.7 -3 2.6 -4.6 1.3 -1.5 -1.3 -5.9 -0.8 -5.9 0.6 0 0.6 2.2 1.7 4.8 2.5 6.9 2.2 8.7 6 4.7 10 -2.2 2.2 -8 2.6 -11.7 0.8z"/>
  <path d="M842.8 1086.9 c-1.4 -0.8 -1.8 -2.4 -1.8 -7.5 0 -4.8 -0.4 -6.6 -1.5 -7 -0.8 -0.4 -1.5 -1.5 -1.5 -2.5 0 -1 0.7 -1.9 1.5 -1.9 0.8 0 1.5 -0.7 1.5 -1.6 0 -1.6 2.7 -4.3 4.3 -4.4 0.4 0 0.7 1.4 0.7 3 0 2.3 0.4 3 2 3 1.2 0 2 0.7 2 1.6 0 0.9 -0.9 1.8 -2 2.1 -1.7 0.5 -2 1.4 -2 5.9 0 4.1 0.4 5.4 1.5 5.4 0.9 0 1.5 0.9 1.5 2.5 0 1.9 -0.5 2.5 -2.2 2.5 -1.3 0 -3.1 -0.5 -4 -1.1z"/>
  <path d="M854 1085.2 c-6.4 -6.4 -2.2 -17.2 6.7 -17.2 5.6 0.1 9.3 3.8 9.3 9.4 0 2.5 -0.2 2.6 -7 2.6 -7 0 -8.7 1 -5.1 3 2.7 1.4 4.7 1.3 6.5 -0.5 1 -1 2.1 -1.2 3.6 -0.7 2.1 0.8 2.1 0.8 0.3 3.1 -1.3 1.6 -3.3 2.5 -6.5 2.8 -4.2 0.5 -5 0.3 -7.8 -2.5z m11 -10 c0 -1.5 -2.4 -3.2 -4.5 -3.2 -2.1 0 -4.5 1.7 -4.5 3.2 0 0.4 2 0.8 4.5 0.8 2.5 0 4.5 -0.4 4.5 -0.8z"/>
  <path d="M873 1078 l0 -10 2.5 0 c1.4 0 2.5 0.5 2.5 1.2 0 0.9 0.3 0.9 1.2 0 1.8 -1.8 7.3 -1.4 9.1 0.6 1.3 1.4 1.7 3.8 1.7 10.1 0 8 -0.1 8.2 -2.2 7.9 -2.1 -0.3 -2.3 -0.9 -2.6 -7.5 -0.2 -6.2 -0.6 -7.3 -2.3 -7.8 -3.6 -1.2 -4.9 1.2 -4.9 8.6 0 6.7 -0.1 6.9 -2.5 6.9 l-2.5 0 0 -10z"/>
  <path d="M895.9 1085.1 c-2.1 -2.1 -2.9 -3.9 -2.9 -6.5 0 -7 3.5 -10.6 10.4 -10.6 3.4 0 8 3.3 7.3 5.3 -0.6 1.9 -3.5 2 -5.3 0.3 -2 -2 -3.8 -2 -5.8 0 -3.2 3.1 -1.1 10.4 2.9 10.4 0.8 0 2.3 -0.9 3.3 -2 2 -2.2 5.2 -1.8 5.2 0.5 0 2.3 -5.1 5.5 -8.7 5.5 -2.5 0 -4.3 -0.8 -6.4 -2.9z"/>
  <path d="M914 1078 l0 -10 2.5 0 2.5 0 0 10 0 10 -2.5 0 -2.5 0 0 -10z"/>
  <path d="M923.6 1085.8 c-3.3 -4.6 -1 -8 6.2 -9.7 4.9 -1.1 5.7 -1.5 4.7 -3 -0.9 -1.6 -5.5 -1.3 -6.1 0.4 -0.8 2 -5.4 2 -5.4 0 0 -5 10.9 -7.6 15 -3.5 1.7 1.7 2 3.3 2 10 0 7 -0.2 8 -1.8 8 -1 0 -2.3 -0.5 -2.9 -1.1 -0.8 -0.8 -1.3 -0.8 -1.7 0 -0.4 0.6 -2.5 1.1 -4.6 1.1 -2.9 0 -4.3 -0.6 -5.4 -2.2z m10.2 -3 c0.7 -0.7 1.2 -2 1.2 -2.9 0 -1.6 -0.4 -1.7 -3.2 -0.7 -4.1 1.3 -5.2 2.3 -4.4 3.7 0.9 1.5 4.9 1.4 6.4 -0.1z"/>
  <path d="M956.4 1087 c-2.5 -1 -6.4 -5.7 -6.4 -7.6 0 -2.4 4.7 -1.6 6.4 1.2 1.5 2.1 2.3 2.5 5.9 2.2 3.7 -0.3 4.2 -0.6 4.2 -2.8 0 -2.2 -0.7 -2.6 -6.4 -4.1 -7 -1.9 -9.1 -3.7 -9.1 -8.1 0 -4.7 3.9 -7.8 10 -7.8 4.4 0 5.6 0.5 8.1 2.9 1.6 1.6 2.9 3.7 2.9 4.5 0 2.5 -4 1.9 -6.2 -0.9 -3 -3.8 -9.8 -3 -9.8 1.2 0 1.4 2.1 2.5 8.7 4.2 2.3 0.6 4.9 1.8 5.8 2.7 1.5 1.6 2 6 0.9 8.9 -1.4 3.6 -9.8 5.6 -15 3.5z"/>
  <path d="M977.9 1085.1 c-2.3 -2.4 -2.9 -3.8 -2.9 -7.3 0.1 -6.4 3.6 -9.8 10.2 -9.8 4.4 0 7.4 2.2 8.8 6.5 3.4 10.3 -8.5 18.1 -16.1 10.6z m9.2 -2.1 c2.2 -1.2 2.7 -7.8 0.7 -9.8 -3 -3 -7.8 0 -7.8 4.8 0 2.8 2.2 6 4.1 6 0.6 0 1.9 -0.5 3 -1z"/>
  <path d="M1001.2 1087 c-3.5 -1.5 -5.7 -7.5 -4.3 -12.2 1.4 -4.6 4.4 -6.8 9.4 -6.8 2.8 0 4.5 0.7 6.5 2.7 l2.6 2.6 -2.2 1 c-1.7 0.8 -2.6 0.6 -4 -0.6 -3.8 -3.5 -7.2 -1.4 -7.2 4.5 0 3.2 0.5 4.1 2.6 5 2.3 1.1 2.9 1 4.4 -0.9 1.2 -1.5 2.4 -2 3.9 -1.6 2.7 0.7 2.7 1.8 -0.4 4.8 -2.6 2.6 -7 3.2 -11.3 1.5z"/>
  <path d="M1017.8 1087.3 c-0.2 -0.4 -0.3 -2.1 -0.2 -3.8 0.1 -1.6 0.2 -5.8 0.3 -9.2 0.1 -6 0.2 -6.3 2.6 -6.3 l2.6 0 -0.3 9.8 c-0.3 9.1 -0.4 9.7 -2.5 10 -1.1 0.2 -2.3 0 -2.5 -0.5z"/>
  <path d="M1027.7 1086.2 c-1 -1 -1.7 -3.1 -1.7 -4.6 0 -2.2 0.7 -3 3.6 -4.2 3 -1.3 3.8 -1.3 4.5 -0.2 0.6 0.9 0.2 1.8 -1.1 2.7 -3 2 -2.5 4.1 0.9 4.1 1.6 0 3.1 0.6 3.4 1.4 1.2 3 -7.1 3.6 -9.6 0.8z"/>
  <path d="M1039 1087 c0 -0.5 0.7 -1 1.5 -1 0.7 0 1.9 -0.8 2.4 -1.7 0.9 -1.5 1 -1.4 1.1 1 0 2.2 -0.4 2.7 -2.5 2.7 -1.4 0 -2.5 -0.4 -2.5 -1z"/>
  <path d="M1047.7 1087.3 c-0.4 -0.3 -0.7 -3.9 -0.7 -7.9 0 -7.1 1 -9.8 2.7 -7.2 0.5 0.8 1 -1.5 1.4 -5.7 0.4 -5.4 0.6 -3.7 0.7 7.3 0.2 13.2 0.1 14.2 -1.6 14.2 -1 0 -2.2 -0.3 -2.5 -0.7z"/>
  <path d="M1076 1074 l0 -14.1 4.2 0.3 4.1 0.3 3 9.5 3 9.5 3.2 -9.5 3.2 -9.5 4.1 -0.3 4.2 -0.3 0 14 0 14.1 -2.5 0 c-2.4 0 -2.4 -0.1 -2.7 -10.7 l-0.3 -10.8 -3.6 10.5 c-3.1 9.3 -3.8 10.5 -5.9 10.5 -2 0 -2.7 -1.1 -5.5 -10 l-3.3 -10 -0.3 10 c-0.4 9.5 -0.5 10 -2.6 10.3 -2.3 0.3 -2.3 0.3 -2.3 -13.8z"/>
  <path d="M1114 1086.9 c-3 -1.2 -5.9 -4.7 -6 -7.1 0 -2.7 3.7 -2.2 5.6 0.7 1.3 1.9 2.5 2.5 5.4 2.5 4.4 0 6.9 -2.2 5.1 -4.4 -0.6 -0.8 -3.3 -1.9 -5.9 -2.6 -7.3 -1.8 -9.2 -3.4 -9.2 -8 0 -5.3 3.4 -8 10.1 -8 5.2 0 9.2 2.6 10.4 6.8 0.5 1.8 0.2 2.2 -1.6 2.2 -1.2 0 -3.2 -1.2 -4.5 -2.6 -2.8 -2.9 -7 -3 -8.8 -0.1 -1.4 2.3 0.9 4.2 6.3 5.1 8.3 1.3 11.6 7.6 6.8 13.1 -2.6 3 -9.4 4.2 -13.7 2.4z"/>
  <path d="M1133 1074 l0 -14 6 0 c10.7 0 16 4.1 14.5 11.1 -0.9 4.2 -3.9 6.2 -10 6.7 l-5.5 0.4 0 4.9 c0 4.6 -0.2 4.9 -2.5 4.9 l-2.5 0 0 -14z m13.4 -1.3 c1.2 -0.9 1.7 -2.3 1.4 -4.2 -0.2 -2.3 -1 -3.1 -3.5 -3.8 -4.8 -1.4 -6.3 -0.4 -6.3 4.1 0 2.1 0.3 4.2 0.7 4.5 1.1 1.2 5.8 0.8 7.7 -0.6z"/>
  <path d="M1151.5 1086.3 c0.4 -1 2.7 -7.3 5.3 -14.1 4.5 -12.3 4.5 -12.3 7.6 -12 3 0.3 3.2 0.7 7.8 13.3 2.6 7.2 4.8 13.3 4.8 13.8 0 0.4 -1.1 0.7 -2.5 0.7 -2 0 -2.8 -0.8 -4.1 -4 l-1.7 -4.1 -5 0.3 c-4.8 0.3 -5.1 0.5 -6.2 3.8 -0.9 2.7 -1.8 3.6 -4 3.8 -2.3 0.3 -2.7 0.1 -2 -1.5z m15.4 -11.5 c0 -0.7 -0.6 -2.9 -1.4 -4.8 l-1.3 -3.5 -1.6 3.7 c-2.2 5.1 -2 5.8 1.4 5.8 1.8 0 3 -0.5 2.9 -1.2z"/>
  <path d="M1183.1 1086.7 c-3.1 -1.6 -6.5 -6.2 -5.7 -7.6 1.2 -1.9 4.3 -1.2 6 1.5 1.5 2.1 2.3 2.5 5.9 2.2 3.7 -0.3 4.2 -0.6 4.2 -2.8 0 -2.2 -0.7 -2.6 -6.4 -4.1 -7 -1.9 -9.1 -3.7 -9.1 -8.1 0 -4.7 3.9 -7.8 10 -7.8 4.4 0 5.6 0.5 8.1 2.9 1.6 1.6 2.9 3.7 2.9 4.5 0 2.5 -4 1.9 -6.2 -0.9 -3 -3.8 -9.8 -3 -9.8 1.2 0 1.4 2.1 2.5 8.7 4.2 2.3 0.6 4.9 1.8 5.8 2.7 1.5 1.6 2 6 0.9 8.9 -1.5 3.9 -10.4 5.8 -15.3 3.2z"/>
  <path d="M1039 1080.2 c0 -1 -0.6 -2.4 -1.2 -3 -1 -1 -1 -1.5 0.1 -2.1 1.6 -1 0.6 -3.1 -1.3 -3.1 -0.8 0 -1.6 -0.9 -1.9 -2 -0.8 -3.1 4.6 -2.7 7.1 0.5 1.9 2.4 1.9 2.7 0.3 7 -1.6 4.6 -3.1 5.9 -3.1 2.7z"/>
  <path d="M1063 1076.5 c0 -2.3 0.4 -2.5 4.5 -2.5 4.1 0 4.5 0.2 4.5 2.5 0 2.3 -0.4 2.5 -4.5 2.5 -4.1 0 -4.5 -0.2 -4.5 -2.5z"/>
  <path d="M1202 1076.5 c0 -2.5 0.2 -2.6 4.8 -2.3 3.9 0.3 4.7 0.6 4.7 2.3 0 1.7 -0.8 2 -4.7 2.3 -4.6 0.3 -4.8 0.2 -4.8 -2.3z"/>
  <path d="M1026 1074 c0 -1.5 4.7 -6 6.2 -6 1 0 0.9 0.3 -0.1 0.9 -1.1 0.7 -1.2 1.3 -0.3 2.3 0.9 1.1 0.9 1.7 0 2.6 -1.5 1.5 -5.8 1.6 -5.8 0.2z"/>
  <path d="M812.3 1063.4 c-0.3 -0.8 -0.1 -2 0.5 -2.6 1.6 -1.6 4.7 -0.5 5 2 0.3 1.8 -0.1 2.2 -2.3 2.2 -1.4 0 -2.8 -0.7 -3.2 -1.6z"/>
  <path d="M914 1062.5 c0 -2 0.5 -2.5 2.5 -2.5 2 0 2.5 0.5 2.5 2.5 0 2 -0.5 2.5 -2.5 2.5 -2 0 -2.5 -0.5 -2.5 -2.5z"/>
  <path d="M1017.2 1062.8 c0.2 -1.7 1 -2.3 2.8 -2.3 1.8 0 2.6 0.6 2.8 2.3 0.3 1.9 -0.1 2.2 -2.8 2.2 -2.7 0 -3.1 -0.3 -2.8 -2.2z"/>
  <path d="M1234.9 1050.8 c0 -0.2 -0.2 -1.3 -0.3 -2.5 -0.2 -1.8 0.2 -2.3 2 -2.3 4.3 0 4.5 -2.8 0.8 -12.4 -1.9 -4.8 -3.4 -9.2 -3.4 -9.7 0 -0.5 1.1 -0.9 2.4 -0.9 2.1 0 2.7 0.8 4.1 5.3 1 2.8 2.1 5.6 2.6 6.1 0.4 0.5 1.6 -1.9 2.6 -5.3 1.6 -5.5 2.1 -6.1 4.5 -6.1 l2.7 0 -3.9 11 c-4.7 13.1 -5.5 14.6 -8 16 -1.6 0.9 -5.9 1.4 -6.1 0.8z"/>
  <path d="M768 1029.1 l0 -14.1 4 0 c4.6 0 4.6 0.1 8 11.8 1.2 4.1 2.4 7.2 2.7 6.9 0.2 -0.3 1.7 -4.5 3.2 -9.4 l2.7 -8.8 4.2 -0.3 4.2 -0.3 0 14.1 c0 14.1 0 14.1 -2.2 13.8 -2.2 -0.3 -2.3 -0.8 -2.6 -10.8 l-0.4 -10.5 -3.6 10.5 c-3 8.6 -4.1 10.6 -5.9 10.8 -1.9 0.3 -2.5 -0.8 -5.5 -9.9 l-3.3 -10.2 -0.5 9.9 c-0.5 9.3 -0.6 9.9 -2.7 10.2 -2.3 0.3 -2.3 0.3 -2.3 -13.7z"/>
  <path d="M802 1033 l0 -10 2.5 0 2.5 0 0 10 0 10 -2.5 0 -2.5 0 0 -10z"/>
  <path d="M811 1033.1 l0 -10.1 2.5 0 c1.4 0 2.5 0.5 2.5 1.2 0 0.9 0.3 0.9 1.2 0 0.7 -0.7 2.7 -1.2 4.4 -1.2 4.9 0 6.4 2.8 6.4 12.3 0 7.6 -0.1 7.8 -2.2 7.5 -2.1 -0.3 -2.3 -1 -2.8 -7.2 -0.4 -5 -1 -7.2 -2.2 -7.9 -3 -1.9 -4.7 0.8 -5 8.1 -0.3 6.1 -0.5 6.7 -2.5 7 -2.3 0.3 -2.3 0.1 -2.3 -9.7z"/>
  <path d="M832 1033 l0 -10 2.5 0 2.5 0 0 10 0 10 -2.5 0 -2.5 0 0 -10z"/>
  <path d="M841.9 1041.1 c-2.2 -1.8 -2.2 -1.8 -0.3 -2.9 1.3 -0.7 2.6 -0.7 3.5 -0.1 0.7 0.5 2.4 0.9 3.7 0.9 3.2 0 2.8 -2.8 -0.5 -3.5 -5.5 -1.1 -7.8 -2.9 -8.1 -6.2 -0.4 -3.9 2.6 -6.3 7.9 -6.3 4.6 0 9.3 3.4 6.9 5 -0.8 0.5 -2.2 0.7 -3 0.3 -3.8 -1.5 -7 -1.5 -7 0.1 0 0.9 1.1 1.8 2.8 2.1 5.4 1.1 7.7 2.9 8 6.2 0.2 2.3 -0.3 3.5 -2 4.7 -3.1 2.2 -9 2 -11.9 -0.3z"/>
  <path d="M861.6 1041.5 c-1.1 -1.2 -1.6 -3.5 -1.6 -8.1 0 -5 -0.3 -6.4 -1.5 -6.4 -0.8 0 -1.5 -0.9 -1.5 -2 0 -1.1 0.7 -2 1.5 -2 0.8 0 1.5 -0.8 1.5 -1.8 0 -1.1 1.1 -2.4 2.5 -3 2.4 -1.1 2.5 -1 2.5 1.8 0 2.3 0.4 3 2 3 1.3 0 2 0.7 2 2 0 1.3 -0.7 2 -2 2 -1.8 0 -2 0.7 -2 5.4 0 4.6 0.3 5.4 2.1 5.9 1.3 0.4 2 1.2 1.7 2.4 -0.4 2.4 -5.1 2.9 -7.2 0.8z"/>
  <path d="M872.9 1040.1 c-6.3 -6.3 -2 -17.1 6.8 -17.1 5.6 0.1 9.3 3.8 9.3 9.4 0 2.4 -0.2 2.5 -7.2 2.8 -6.8 0.3 -7.1 0.4 -5.4 2.1 2.1 2.1 5 2.2 6.9 0.3 1.4 -1.5 5.7 -1.1 5.7 0.4 0 2 -5.5 5 -9.2 5 -3 0 -4.6 -0.7 -6.9 -2.9z m11.1 -9.9 c0 -1.5 -2.4 -3.2 -4.5 -3.2 -2.1 0 -4.5 1.7 -4.5 3.2 0 0.4 2 0.8 4.5 0.8 2.5 0 4.5 -0.4 4.5 -0.8z"/>
  <path d="M892 1033 l0 -10 2.5 0 c1.4 0 2.5 0.5 2.5 1 0 0.7 0.6 0.7 1.9 0 3.1 -1.6 4.1 -1.2 4 1.8 0 1.5 -0.3 2.1 -0.6 1.5 -1.7 -4.3 -5.3 2.7 -5.3 10.2 0 5.2 -0.1 5.5 -2.5 5.5 l-2.5 0 0 -10z"/>
  <path d="M906.2 1032.9 l-0.3 -9.9 2.6 0 2.6 0 -0.3 9.8 c-0.3 9 -0.5 9.7 -2.4 9.8 -1.9 0.1 -2 -0.5 -2.2 -9.7z"/>
  <path d="M919.5 1042 c-1.1 -1.7 0.5 -3.2 2.1 -1.9 0.9 0.7 1.4 0.8 1.4 0.1 0 -0.6 0.9 -1.4 2.1 -1.7 4.5 -1.5 4.3 -9.6 -0.3 -11.4 -2.4 -1 -2.8 -0.7 -8.4 6.4 l-2.4 3 0 -3.8 c0 -7.7 9.4 -12.6 15.7 -8.2 5.4 3.8 5 14.1 -0.7 17 -3.3 1.7 -8.6 2 -9.5 0.5z"/>
  <path d="M948.2 1042.3 c-1.9 -0.7 -4.2 -5.8 -4.2 -9.3 0 -3.7 2.3 -8.5 4.5 -9.4 2.7 -1 7 -0.7 8.3 0.6 0.9 0.9 1.2 0 1.2 -4 0 -4.9 0.2 -5.2 2.5 -5.2 l2.5 0 0 14 c0 12.8 -0.2 14 -1.8 14 -1 0 -2.3 -0.5 -2.9 -1.1 -0.8 -0.8 -1.3 -0.8 -1.7 0 -0.7 1.1 -6 1.4 -8.4 0.4z m9.7 -6.7 c1.2 -2.6 1.2 -3.3 0 -5.5 -1.8 -3.2 -4.5 -3.8 -7 -1.5 -3.8 3.4 -1.3 10.9 3.5 10.2 1.1 -0.2 2.7 -1.6 3.5 -3.2z"/>
  <path d="M970.7 1041.9 c-5.1 -3 -5.8 -11.9 -1.2 -16.5 5.5 -5.5 15.5 -1.6 15.5 6 l0 3.5 -7.2 0.3 c-6.8 0.3 -7.1 0.4 -5.4 2.1 2.1 2.1 5.9 2.2 7.5 0.3 1.1 -1.3 5.1 -1.1 5.1 0.3 -0.1 3.9 -9.7 6.7 -14.3 4z m9.3 -11.8 c0 -3.2 -7.1 -3.8 -8.4 -0.6 -0.4 1.2 0.4 1.5 3.9 1.5 2.5 0 4.5 -0.4 4.5 -0.9z"/>
  <path d="M1000.3 1041.6 c-3.2 -1.4 -5.3 -4.2 -5.3 -6.9 0 -2 4.1 -1 5.8 1.5 1.9 2.6 8.8 2.5 10.2 -0.1 1.2 -2.4 0.6 -2.9 -7.5 -5.6 -7.3 -2.4 -9.6 -5.5 -7.6 -10.2 0.7 -1.7 2.4 -3.5 3.7 -4.2 3.1 -1.4 9.9 -1.4 12.5 -0.1 2.1 1.2 5.1 6.4 4.2 7.4 -1.3 1.3 -5.3 0.6 -5.3 -0.9 0 -2.1 -4.3 -3.9 -7.4 -3.1 -3.8 0.9 -3.7 5.3 0.2 6.2 8.4 1.9 10.3 2.7 11.8 4.9 1.9 2.9 1.2 7.5 -1.6 10 -2.6 2.3 -9.7 2.9 -13.7 1.1z"/>
  <path d="M1020.7 1041.2 c-3.7 -4.1 -1.2 -8.8 5.2 -9.8 4.7 -0.8 6.6 -1.8 5.7 -3.3 -1 -1.6 -5.6 -1.3 -6.2 0.4 -0.7 1.7 -6.4 2.1 -6.4 0.5 0 -0.6 1.1 -2.2 2.5 -3.5 1.8 -1.9 3.5 -2.5 7 -2.5 7 0 8.5 2.1 8.5 12 0 7.3 -0.2 8 -1.9 8 -1.1 0 -2.3 -0.5 -2.6 -1 -0.4 -0.7 -1.2 -0.7 -2.5 0 -2.9 1.6 -7.5 1.2 -9.3 -0.8z m10.1 -3.4 c0.7 -0.7 1.2 -2 1.2 -2.9 0 -1.5 -0.5 -1.6 -3.2 -0.8 -3.8 1 -5.3 2.3 -4.4 3.8 0.9 1.5 4.9 1.4 6.4 -0.1z"/>
  <path d="M1040.7 1042.3 c-0.4 -0.3 -0.7 -6.6 -0.7 -14 l0 -13.3 2.5 0 2.5 0 0 14 c0 12.9 -0.1 14 -1.8 14 -1 0 -2.2 -0.3 -2.5 -0.7z"/>
  <path d="M1051 1040.3 c-1.6 -2.1 -2 -4 -2 -9.9 0 -7.2 0.1 -7.4 2.5 -7.4 2.4 0 2.5 0.2 2.5 6.4 0 4.5 0.5 6.9 1.6 8 3.5 3.6 5.6 1.1 6.2 -7.3 0.4 -6.7 0.6 -7.1 2.9 -7.1 2.4 0 2.4 0 2.1 9.8 l-0.3 9.7 -6.7 0.2 c-6.2 0.2 -6.9 0 -8.8 -2.4z"/>
  <path d="M1072.5 1040.5 c-2 -1.9 -2.5 -3.4 -2.5 -7.5 0 -4.1 0.5 -5.6 2.5 -7.5 2.5 -2.6 6.3 -3.2 9.6 -1.5 1.8 1 1.9 0.7 1.9 -4 0 -4.7 0.2 -5 2.5 -5 l2.5 0 0 14 0 14 -2.5 0 c-1.4 0 -2.5 -0.5 -2.5 -1.2 0 -0.9 -0.3 -0.9 -1.2 0 -2.1 2.1 -7.7 1.4 -10.3 -1.3z m9.6 -2.5 c2.2 -1.2 2.7 -7.8 0.7 -9.8 -3 -3 -7.8 0 -7.8 4.8 0 2.8 2.2 6 4.1 6 0.6 0 1.9 -0.5 3 -1z"/>
  <path d="M1101 1029 l0 -14 5.8 0.1 c10.9 0.1 16.2 4 14.7 10.8 -0.9 4.4 -3.8 6.4 -10 6.9 l-5.5 0.4 0 4.9 c0 4.6 -0.2 4.9 -2.5 4.9 l-2.5 0 0 -14z m13.1 -1 c1.2 -0.7 1.9 -2.1 1.9 -4.1 0 -3.2 -0.9 -3.9 -6.1 -4.2 -3.2 -0.2 -3.4 0 -3.7 3.1 -0.2 1.9 -0.1 4 0.2 4.8 0.6 1.6 4.9 1.8 7.7 0.4z"/>
  <path d="M1126 1041 c-1.7 -1.7 -2 -3.3 -2 -10 0 -7.9 0 -8 2.5 -8 2.4 0 2.5 0.2 2.5 7 0 6 0.3 7.1 2.1 8 3.4 1.9 4.8 -0.3 5.1 -7.8 0.3 -6.1 0.5 -6.7 2.6 -7 2.2 -0.3 2.2 -0.1 2.2 9.7 0 9.1 -0.2 10.1 -1.8 10.1 -1 0 -2.3 -0.5 -2.9 -1.1 -0.8 -0.8 -1.3 -0.8 -1.7 0 -1.2 1.8 -6.5 1.2 -8.6 -0.9z"/>
  <path d="M1145.9 1041 c-0.1 -1.1 -0.1 -3.1 -0.1 -4.5 0 -21.2 0 -21.5 2.7 -21.5 2.3 0 2.5 0.4 2.5 4.5 0 4.4 0 4.4 3 3.9 4.5 -0.9 7.8 0.3 9.5 3.6 2.7 5.1 1.6 11.6 -2.4 14.7 -2 1.5 -7.8 1.7 -8.7 0.2 -0.4 -0.8 -0.9 -0.8 -1.7 0 -1.8 1.8 -4.7 1.3 -4.8 -0.9z m13 -5.1 c3.3 -5.9 -2.9 -12.1 -7.1 -6.9 -2.2 2.7 -2.3 4.9 -0.2 7.8 2 2.9 5.4 2.5 7.3 -0.9z"/>
  <path d="M1168 1029 l0 -14 2.5 0 2.5 0 0 14 0 14 -2.5 0 -2.5 0 0 -14z"/>
  <path d="M1178 1042.1 c-0.1 -0.6 -0.1 -5 -0.1 -9.8 -0.1 -8.8 -0.1 -8.8 2.5 -9.1 l2.7 -0.3 -0.3 9.8 c-0.3 9.3 -0.4 9.8 -2.5 10.1 -1.3 0.2 -2.3 -0.1 -2.3 -0.7z"/>
  <path d="M1190.2 1042 c-3.5 -1.5 -5.7 -7.5 -4.3 -12.2 1.4 -4.6 4.4 -6.8 9.4 -6.8 2.8 0 4.5 0.7 6.5 2.7 l2.6 2.6 -2.2 1 c-1.7 0.8 -2.7 0.6 -4.1 -0.7 -2.6 -2.4 -5.3 -1.7 -6.9 1.7 -2.7 5.5 3.6 11.7 7 6.8 1 -1.4 2.1 -1.8 3.6 -1.4 2.8 0.7 2.8 1.8 -0.3 4.8 -2.6 2.6 -7 3.2 -11.3 1.5z"/>
  <path d="M1207.7 1041.2 c-3.8 -4.2 -1.1 -8.4 6.1 -10.1 4.9 -1.1 5.7 -1.5 4.7 -3 -0.9 -1.6 -5.1 -1.3 -6.5 0.4 -0.7 0.8 -2.3 1.5 -3.5 1.5 -1.8 0 -2.2 -0.4 -1.8 -2 0.8 -3.1 4.3 -5 9 -5 6.8 0 8.3 2.2 8.3 12 0 7.9 0 8 -2.5 8 -1.4 0 -2.5 -0.5 -2.5 -1 0 -0.7 -0.6 -0.7 -1.9 0 -3 1.6 -7.6 1.2 -9.4 -0.8z m10.1 -3.4 c0.7 -0.7 1.2 -2 1.2 -2.9 0 -1.5 -0.5 -1.6 -3.2 -0.8 -3.8 1 -5.3 2.3 -4.4 3.8 0.9 1.5 4.9 1.4 6.4 -0.1z"/>
  <path d="M1132.5 1017.9 c1.8 -3.3 3.7 -4.4 6 -3.5 1.3 0.4 0.9 1.2 -1.8 3.6 -4.5 3.9 -6.2 3.9 -4.2 -0.1z"/>
  <path d="M802 1017.5 c0 -2 0.5 -2.5 2.5 -2.5 2 0 2.5 0.5 2.5 2.5 0 2 -0.5 2.5 -2.5 2.5 -2 0 -2.5 -0.5 -2.5 -2.5z"/>
  <path d="M832 1017.5 c0 -2 0.5 -2.5 2.5 -2.5 2 0 2.5 0.5 2.5 2.5 0 2 -0.5 2.5 -2.5 2.5 -2 0 -2.5 -0.5 -2.5 -2.5z"/>
  <path d="M905.2 1017.8 c0.2 -1.7 1 -2.3 2.8 -2.3 1.8 0 2.6 0.6 2.8 2.3 0.3 1.9 -0.1 2.2 -2.8 2.2 -2.7 0 -3.1 -0.3 -2.8 -2.2z"/>
  <path d="M1177.2 1017.8 c0.2 -1.7 1 -2.3 2.8 -2.3 1.8 0 2.6 0.6 2.8 2.3 0.3 1.9 -0.1 2.2 -2.8 2.2 -2.7 0 -3.1 -0.3 -2.8 -2.2z"/>
  <path d="M945.2 977.5 l-9.3 -7.5 -3.7 2.5 c-5.3 3.4 -11.9 4.8 -21.4 4.3 -18.9 -1 -31.4 -11.3 -37.2 -30.7 -1.8 -6.2 -2.1 -20.2 -0.5 -27 3.4 -14.9 17.1 -29 30.8 -31.7 2.6 -0.6 3 -0.3 4.2 3 1 2.8 1.9 3.6 3.7 3.6 1.8 0 2.7 -0.9 4 -4.1 l1.6 -4.1 5 0.6 c7.2 0.8 18.7 6.7 23.2 11.9 2 2.3 5.1 7.1 6.8 10.7 2.9 6.2 3.1 7.1 3.1 18.5 0 11.1 -0.2 12.4 -2.8 17.7 -1.5 3.1 -4.4 7.1 -6.3 8.8 -4.1 3.6 -4.3 3.3 4.8 8.7 l4.8 2.8 0 9.8 c0 5.3 -0.3 9.7 -0.7 9.7 -0.5 -0.1 -5 -3.4 -10.1 -7.5z m-23.3 -17.1 c0.3 -0.3 -0.1 -0.9 -0.9 -1.4 -0.8 -0.5 -8.2 -5.8 -16.4 -11.9 -8.3 -6.1 -15.1 -10.9 -15.3 -10.8 -0.8 0.9 3.1 11.8 5.4 15.1 3.2 4.5 9.5 9.2 13.3 9.9 2.9 0.6 13.1 -0.1 13.9 -0.9z m15.2 -16.5 c3.7 -12.3 1.5 -26.3 -5.6 -34.7 -8.4 -10.1 -25.6 -10.3 -34.6 -0.5 -3 3.1 -5.9 8.5 -5.9 10.5 0.1 1.2 41.5 31.6 43.2 31.7 0.4 0.1 1.7 -3.1 2.9 -7z"/>
  <path d="M970 975.4 c-4.9 -2.1 -7 -4.2 -9.6 -9.9 -2.3 -4.8 -2.4 -5.8 -2.4 -30.2 l0 -25.3 8 0 8 0 0 20.8 c0 18.1 0.3 21.2 1.9 24.8 2.3 5 6.8 7 13.4 5.9 5 -0.9 10.1 -5.7 11.1 -10.5 0.3 -1.8 0.6 -11.7 0.6 -22.1 l0 -18.9 8.5 0 8.5 0 0 33 0 33 -8.5 0 -8.5 0 0 -7.2 0 -7.3 -2.5 4.3 c-4.5 8 -10.1 11.2 -19.2 11.2 -3.2 -0.1 -7.4 -0.8 -9.3 -1.6z"/>
  <path d="M1063.3 975.2 c-14.5 -5.2 -22 -17.5 -21.1 -34.6 0.5 -9.7 2.9 -15.6 8.7 -21.9 7.1 -7.7 20.1 -11.5 32.4 -9.6 10.4 1.6 9.7 0.9 9.7 10.6 0 8.4 0 8.5 -2.2 7.8 -11.3 -3.6 -13.7 -3.9 -18.5 -2.7 -9.4 2.5 -13.6 8.2 -13.6 18.2 0 13.8 11.5 21.7 25.6 17.6 3.1 -0.9 6.3 -1.9 7.2 -2.2 1.3 -0.5 1.5 0.6 1.5 7.5 0 10 -0.5 10.4 -14.5 10.8 -7.8 0.3 -11.1 -0.1 -15.2 -1.5z"/>
  <path d="M1178 975.3 c-11.9 -4.1 -19.3 -13.6 -21.4 -27.3 -0.2 -1.4 -0.4 4.4 -0.5 12.8 l-0.1 15.2 -8.5 0 -8.5 0 0 -21 c0 -23.4 -0.7 -26.7 -5.9 -29.4 -4 -2.1 -8.7 -2 -13.8 0.3 -7.2 3.3 -7.8 5.4 -8.1 29.4 l-0.3 20.7 -8.3 0 -8.3 0 0.1 -44.2 0.1 -44.3 8.3 -0.3 8.2 -0.3 0 18.8 c0.1 17.7 0.2 18.6 1.7 15.8 2.3 -4.5 7.4 -9.5 11.3 -11.2 4.7 -2 13.6 -2 18.5 0.1 9.2 3.9 13 11.4 13.4 26.2 0.1 1.6 0.7 2.1 2.4 2 1.2 -0.1 2.2 -0.7 2.2 -1.6 0 -0.9 -0.7 -1.4 -1.7 -1.2 -1.1 0.2 -1.8 -0.3 -1.8 -1.3 0 -0.8 0.4 -1.5 1 -1.5 0.5 0 0.7 -0.6 0.4 -1.4 -0.7 -1.9 2.9 -8.9 7.2 -13.6 11.9 -13.1 35.9 -12.3 45.4 1.5 3.9 5.7 6.2 14.7 5.8 23 l-0.3 6.7 -21 -0.2 c-11.5 0 -21.1 -0.2 -21.2 -0.4 -0.2 -0.2 0.1 -1.6 0.7 -3.1 0.9 -2.3 1.3 -2.5 2.5 -1.5 1.3 1.1 1.5 0.7 1.5 -2.4 l0 -3.6 10.6 0 10.6 0 -0.7 -3.7 c-1.6 -8.7 -5.8 -12 -14.2 -11 -5.3 0.6 -9.7 4.4 -10.9 9.4 -0.4 1.6 -1.5 4 -2.5 5.5 -2.3 3.1 -2.3 3.8 -0.5 3.8 1.2 0 1 1.1 -0.7 6 -1.2 3.3 -2.5 6 -2.8 6 -0.3 0 -1.3 -1.8 -2.2 -4 -1.1 -2.8 -2 -3.8 -3 -3.4 -1.2 0.4 -1.1 1.4 0.7 6 1.7 4.3 2.5 5.4 4.4 5.4 1.7 0 2.7 -1 4 -4.1 l1.8 -4.1 2.4 3.8 c3.9 6 8.1 7.9 17 7.8 4.1 -0.1 9.5 -0.9 11.9 -1.8 2.4 -0.9 4.7 -1.6 5.2 -1.6 0.5 0 0.9 3.8 0.9 8.4 l0 8.3 -5.7 1.2 c-8 1.6 -21.9 1.3 -27.3 -0.6z m-15 -32.7 c0 -0.8 -0.4 -1.7 -0.8 -2 -1.3 -0.8 -3.5 1.1 -2.8 2.3 1 1.6 3.6 1.4 3.6 -0.3z"/>
  <path d="M770 931.5 l0 -44.5 29 0 29.1 0 -0.3 7.3 -0.3 7.2 -20.2 0.3 -20.3 0.2 0 11 0 11 16.5 0 16.5 0 0 7 0 7 -16.5 0 -16.5 0 0 11.5 0 11.5 20.3 0.2 20.2 0.3 0.3 7.3 0.3 7.2 -29.1 0 -29 0 0 -44.5z"/>
  <path d="M835 931.5 l0 -44.5 8 0 8 0 0 44.5 0 44.5 -8 0 -8 0 0 -44.5z"/>
  <path d="M1024 943 l0 -33 3 0 c1.7 0 4 0.6 5.1 1.3 1.7 1 2.3 1 2.6 0 0.3 -0.7 1.6 -1.3 2.9 -1.3 2.3 0 2.4 0.3 2.3 6.3 l0 6.2 -1.9 -4.2 c-1.3 -2.9 -2.4 -4.1 -3.3 -3.7 -1.2 0.4 -1.1 1.4 0.7 6 1.1 2.9 2.7 5.4 3.4 5.4 0.9 0 1.2 5.7 1.2 25 l0 25 -8 0 -8 0 0 -33z"/>
  <path d="M708.4 924.2 c-4.9 -3.7 -15.7 -12.2 -23.9 -18.8 -8.3 -6.7 -15.9 -12.6 -17 -13.3 -1.8 -1.2 -2.9 -0.7 -9.3 3.7 -11.9 8.2 -24.3 12.2 -42.7 13.7 -9.5 0.8 -26.2 -0.8 -37.2 -3.6 -4.3 -1 -12.3 -4.1 -17.8 -6.9 -35.6 -17.5 -57.2 -54.2 -59.2 -100.6 -2.1 -48.8 19.1 -89.8 57 -109.9 22.8 -12.2 46.6 -16.6 70.2 -13.1 40.8 6 69.9 29.1 83 65.9 8.4 23.4 8.9 54.8 1.3 77.2 -5.1 14.9 -14.8 28.9 -25.2 36.1 -1.9 1.3 -2.8 2.6 -2.4 3.6 0.4 0.8 7.9 6.2 16.7 11.9 l16.1 10.3 0 25.3 c0 13.9 -0.2 25.3 -0.4 25.3 -0.2 0 -4.4 -3.1 -9.2 -6.8z m-82.8 -56.3 c2.4 -0.6 4.6 -1.5 4.9 -1.9 0.4 -0.7 -13.4 -11.1 -59 -44.7 -26 -19.1 -25.5 -18.7 -25.5 -17 0 4.1 3.6 17.9 6.6 25.4 7.8 19.4 22.1 33 39.5 37.7 6.6 1.8 27.2 2.1 33.5 0.5z m40.3 -33.9 c6.1 -15.4 7.6 -23.7 7.5 -42 0 -14.8 -0.3 -17.5 -2.6 -26.1 -7.4 -26.8 -21.8 -42.8 -44.4 -49.5 -8.1 -2.4 -25.7 -2.4 -33.8 0 -18.6 5.5 -31.9 17.9 -40.2 37.7 l-3.3 7.9 17.2 12.4 c46.9 33.9 94.3 67.5 95.3 67.5 0.6 0.1 2.5 -3.5 4.3 -7.9z"/>
  <path d="M1030.4 899.6 c-0.4 -1.1 -1.3 -1.4 -2.9 -1 -3.1 0.8 -6 -3.5 -6 -8.9 0 -3.1 0.7 -4.5 3.3 -6.8 9.7 -8.7 23.3 4.5 14.5 14 -3.4 3.7 -8 5.1 -8.9 2.7z"/>
  <path d="M1181.3 899.8 c0.2 -0.7 1.7 -5.2 3.3 -10 l2.8 -8.8 8.4 0 c4.6 0 8.2 0.3 8 0.8 -0.1 0.4 -2.5 4.9 -5.3 10 l-5 9.2 -6.3 0 c-4.7 0 -6.3 -0.3 -5.9 -1.2z"/>
  <path d="M910.6 888.4 c-0.9 -2.3 -0.8 -2.4 1.3 -2.4 1.4 0 1.8 0.5 1.4 2 -0.6 2.4 -1.9 2.6 -2.7 0.4z"/>
  <path d="M904.6 863.1 c-9.2 -2.4 -13.6 -6.9 -13.6 -13.5 0 -3.9 0.4 -4.8 4 -7.9 l4 -3.4 -2.5 -1.1 c-3.3 -1.5 -6.5 -6.9 -6.5 -10.9 0 -4.6 1.6 -7.5 5.6 -10.2 l3.5 -2.4 -2.4 -2.6 c-1.4 -1.4 -2.9 -3.5 -3.5 -4.6 -0.9 -1.7 -1.1 -1 -1.2 3.8 l0 5.7 -21.5 0 c-11.8 0 -21.5 0.4 -21.5 0.9 0 2 4.8 7.5 8 9.3 2.9 1.6 4.9 1.9 12.5 1.5 5.1 -0.3 10.6 -1.2 12.8 -2.1 l3.8 -1.7 -0.3 8.8 -0.3 8.8 -6 1.3 c-8.7 1.8 -22.8 1 -29.1 -1.7 -13.4 -5.8 -21.2 -21.7 -18.6 -37.7 2 -12.1 8.1 -20.6 18.1 -25.3 8 -3.7 19.4 -3.6 26.7 0.2 6.3 3.2 10.8 8.4 13.1 15.2 l1.7 5 0.7 -4.2 c1.8 -9.9 7.8 -15.9 18.5 -18.3 6.9 -1.6 12.8 -0.5 16.9 3.2 l3.5 3 0 -7.1 0 -7.1 7 0 7 0 0 17.3 c0 16.6 -0.1 17.5 -2.6 22.5 -2.8 5.7 -8.1 10 -14.8 12.2 -3.9 1.3 -18.4 1 -21.8 -0.5 -1.5 -0.6 -1.8 -0.2 -1.8 2.9 0 5 2 5.6 19.3 5.6 14.6 0.1 19.9 1.1 23.8 4.5 1.8 1.8 1.9 1.3 2.1 -27 l0.3 -28.7 8 0 8 0 0.3 33.1 0.2 33.1 -7 0 -7 0 0 3.6 c0 6.7 -4.7 12.4 -12.9 15.5 -8 3.1 -25 3.6 -34.5 1z m27.6 -13.3 c3.4 -1.3 4.6 -4.5 2.4 -6.7 -2.2 -2.2 -26.4 -3 -27.7 -0.9 -1.3 2 -1.1 5.4 0.5 6.8 3.5 2.8 18.4 3.3 24.8 0.8z m-5.1 -44.7 c5.3 -5.4 3.5 -13.4 -3.7 -16.1 -5.6 -2.2 -13.1 -0.2 -15.4 3.9 -1.9 3.7 -1.2 9.3 1.7 12.3 2.3 2.4 3.4 2.8 8.6 2.8 5.1 0 6.2 -0.4 8.8 -2.9z m-52.1 -2.1 c0 -3.9 -3.2 -10.1 -6.1 -11.5 -3.6 -1.9 -10.2 -1.9 -13.8 0 -2.8 1.4 -5.3 5.5 -6.5 10.8 l-0.6 2.7 13.5 0 c12.8 0 13.5 -0.1 13.5 -2z"/>
  <path d="M991.5 842.7 c-6.8 -2.3 -10.1 -4.4 -14.8 -9.7 -6.7 -7.4 -9 -14.3 -8.5 -25 0.7 -14.5 7 -24 19.7 -29.8 4.7 -2.2 7 -2.6 14.6 -2.6 7.6 0 9.9 0.4 14.6 2.6 7.2 3.3 13.4 9.5 16.7 16.7 2.2 4.7 2.6 7.1 2.6 14.6 0.1 7.6 -0.3 9.8 -2.5 14.5 -3.7 7.9 -8.1 12.5 -15.6 16.2 -5.4 2.6 -7.9 3.2 -14.6 3.5 -5 0.2 -9.8 -0.2 -12.2 -1z m20.6 -17 c7.5 -4.9 10.2 -17.1 5.6 -25.7 -5.1 -9.7 -19.6 -12.1 -27.5 -4.7 -3.9 3.6 -5.5 7.8 -5.5 14.2 0 6.6 1.6 10.6 6 14.6 3.6 3.4 4.6 3.7 11.9 3.8 4.8 0.1 6.9 -0.4 9.5 -2.2z"/>
  <path d="M1113.4 843.3 c-3.5 -0.7 -10.2 -7.1 -11.4 -10.9 -1.7 -5.2 -0.8 -14.8 1.7 -18.2 5 -6.7 12.5 -9.2 27.8 -9.2 l9.5 0 0 -4.5 c0 -7.7 -5.2 -10.4 -17.5 -9.1 -3.5 0.3 -8.3 1.3 -10.6 2.1 -6.9 2.5 -6.9 2.4 -6.9 -6.4 l0 -7.9 3.3 -1.1 c5.8 -1.9 19.1 -3.3 25.2 -2.6 6.3 0.7 13.7 3.4 16.8 6.3 1.1 0.9 2.9 3.5 4.1 5.7 2 3.7 2.1 5.7 2.4 29.8 l0.3 25.7 -8 0 -8.1 0 0 -5.7 0 -5.6 -4.9 5.1 c-6.2 6.5 -13.6 8.5 -23.7 6.5z m21.2 -13.8 c3.2 -2 6.4 -7.3 6.4 -10.3 0 -2.4 -0.1 -2.4 -10.5 -2 -11.7 0.3 -12.5 0.7 -12.5 6.9 0 3.5 1.6 5.9 5 7.2 2.4 1 8.9 0 11.6 -1.8z"/>
  <path d="M1217.6 842.6 c-11.7 -4.4 -17.6 -15.5 -17.6 -33.2 0 -21.3 10.4 -34 27.5 -33.8 7.7 0.1 15.5 3.9 19.3 9.4 1.5 2.2 3 3.9 3.4 4 0.4 0 0.7 -7.8 0.7 -17.2 l0 -17.3 8 -0.3 8.1 -0.3 0 44.6 0 44.5 -8 0 c-5.7 0 -8 -0.4 -8.1 -1.2 -0.1 -0.7 -0.1 -3.7 0 -6.5 0.1 -2.9 -0.2 -5.3 -0.6 -5.3 -0.4 0.1 -2 1.8 -3.5 4 -5.7 8.2 -19.3 12.2 -29.2 8.6z m25.5 -17.1 c3.9 -3 5.9 -6.1 6.8 -10.9 2.3 -12.2 -3.8 -22.2 -14.2 -23.3 -5.9 -0.7 -11 1.1 -14.6 5.2 -3.2 3.6 -5.5 11.9 -4.5 16.3 0.3 1.5 0.7 3.7 1 4.9 0.5 2.7 5.1 8.2 7.8 9.4 3.7 1.6 14.8 0.6 17.7 -1.6z"/>
  <path d="M1292.7 842.9 c-6.2 -1.4 -11.2 -4.5 -15.8 -9.7 -5.9 -6.5 -8.3 -13.5 -8.3 -23.7 0 -10.2 2.4 -17.2 8.3 -23.7 10 -11.1 26 -13.8 38.3 -6.5 9.1 5.5 13.8 15.7 13.8 29.9 l0 6.8 -11 0 -11 0 0 -5.5 c0 -5.3 0.1 -5.5 2.6 -5.5 2.5 0 2.6 -0.2 1.9 -3.7 -1.5 -8.3 -5 -11.3 -12.8 -11.3 -5.7 0 -10.2 2.9 -11.8 7.7 -0.6 2.1 -1.9 4.3 -2.8 5 -2.8 2 -0.5 2.6 10 2.4 l10.1 -0.2 -3.1 3.8 c-3.5 4.2 -3.8 5.3 -1.5 5.3 0.8 0 1.2 0.5 0.9 1 -0.3 0.6 -2.6 1 -4.9 1 -3.5 0 -4.5 -0.4 -4.9 -2 -0.3 -1.4 -1 -1.8 -2.2 -1.4 -0.9 0.4 -1.4 1.2 -1.1 2 0.3 0.7 0 1.4 -0.6 1.6 -1.3 0.5 0.3 3.9 3.8 8.1 1.3 1.6 2.4 3.5 2.4 4.3 0 1.6 4.5 2 5.5 0.4 0.3 -0.5 3.3 -1 6.5 -1 3.2 0 8.6 -0.9 11.9 -1.9 l6.2 -1.9 -0.3 8.6 -0.3 8.7 -5.5 1.2 c-6.5 1.3 -19 1.5 -24.3 0.2z m-4.1 -33 c0.3 -0.6 0.2 -1.5 -0.2 -1.9 -1.2 -1.2 -3.8 0.5 -3 1.9 0.9 1.4 2.3 1.4 3.2 0z"/>
  <path d="M770 798.5 l0 -44.5 21.8 0 c19.7 0 22.1 0.2 26.2 2.1 9.5 4.3 13.3 10.6 13.3 21.9 0.1 4.7 -0.5 8.9 -1.5 11.1 -2.3 5.2 -8 11.3 -12.8 13.4 -2.2 1 -4 2.2 -4 2.7 0 0.5 1.7 2.5 3.8 4.6 3.7 3.5 20.2 29.8 20.2 32.1 0 0.7 -3 1.1 -8.8 1.1 l-8.7 0 -10.5 -16.6 c-13.7 -21.9 -13.3 -21.4 -18.1 -21.4 l-3.9 0 0 19 0 19 -5.6 0 c-3.4 0 -5.3 -0.4 -4.9 -1 0.9 -1.5 -0.4 -3 -2.1 -2.3 -0.8 0.3 -1.3 1.2 -1 1.9 0.3 0.9 -0.2 1.4 -1.4 1.4 -2 0 -2 -0.9 -2 -44.5z m4.3 36.9 c-0.3 -0.8 -0.9 -1.4 -1.3 -1.4 -1.3 0 -2.2 1.9 -1.5 3 0.9 1.4 3.4 0 2.8 -1.6z m36.8 -47.2 c2.4 -2.7 2.9 -4.1 2.9 -8.5 0 -9.3 -3.8 -11.7 -18.7 -11.7 l-8.3 0 0 12.1 0 12.1 10.6 -0.4 c10.5 -0.4 10.6 -0.4 13.5 -3.6z"/>
  <path d="M1038.5 841.7 c-0.3 -0.7 -0.4 -15.5 -0.3 -33.1 l0.3 -31.8 8 -0.1 8 -0.2 0.5 7.5 c0.5 7.5 0.5 7.5 1.9 4.2 2 -4.9 4.9 -8 8.9 -10.1 11.9 -6 26.3 -1.7 31.3 9.3 1.7 3.6 1.9 7 1.9 29.9 l0 25.7 -8 0 -8 0 0 -21.2 c0 -23.3 -0.7 -26.8 -6 -29.6 -3.5 -1.8 -12.4 -1 -15.8 1.5 -5.6 4.1 -6.2 6.9 -6.2 29.1 l0 20.2 -8 0 c-5.6 0 -8.2 -0.4 -8.5 -1.3z"/>
  <path d="M1163.1 817.8 c0.1 -19.6 0.4 -24.7 1.2 -22.5 0.9 2.2 1.7 2.7 3.6 2.5 2 -0.2 2.9 -1.4 4.7 -5.8 1.2 -3 2.5 -6.4 2.8 -7.4 0.4 -1.6 0.7 -1.7 2 -0.6 1.4 1.1 1.6 0.4 1.6 -6.5 0 -4.3 -0.2 -7.6 -0.4 -7.4 -2.4 2.4 -8.6 10.5 -8.6 11.1 0 0.5 0.6 0.8 1.4 0.8 1.2 0 1 1.1 -0.7 6 -1.2 3.3 -2.4 6 -2.7 6 -0.3 0 -1.5 -2.2 -2.8 -4.9 -2 -4.4 -2.2 -6.5 -2.2 -20 l0 -15.1 8.5 0 8.5 0 0 44.5 0 44.5 -8.5 0 -8.5 0 0.1 -25.2z"/>
  <path d="M950.5 764.4 c-6.6 -7.1 -2.3 -17.3 7.3 -17.4 6.1 0 10.2 4.1 10.2 10 0 6.1 -4.1 10 -10.5 10 -3.7 0 -5.1 -0.5 -7 -2.6z"/>
  <path d="M967 685.5 l0 -42.6 8.3 0.3 8.2 0.3 0.6 7 c0.3 3.9 0.6 6.5 0.7 5.9 0.5 -2.6 8.1 -9.9 12.6 -12 14.2 -6.6 30.7 1.1 35.3 16.5 3.5 11.7 1.6 29.9 -3.9 38.1 -10.5 15.5 -33.8 15.7 -42.5 0.4 l-2.3 -3.9 0 16.3 0 16.2 -8.5 0 -8.5 0 0 -42.5z m43.7 6.7 c4.7 -3.3 6.8 -8.5 6.8 -16.7 0 -11.7 -5.4 -17.5 -16.5 -17.5 -6.2 0 -10 1.8 -13.7 6.7 -2.3 3 -2.8 4.8 -3.1 10.7 -0.2 5.9 0.1 7.7 2 11.1 1.3 2.2 3.9 5 5.8 6.3 2.9 2 4.5 2.3 9.5 2 4.2 -0.3 7 -1 9.2 -2.6z"/>
  <path d="M869.2 709.4 c-2.9 -0.7 -6.2 -1.9 -7.4 -2.5 -4.2 -2.3 -11 -9.5 -13.6 -14.4 -2.5 -4.5 -2.7 -6 -2.7 -16 0 -10 0.2 -11.5 2.7 -16.1 8.7 -16.6 29.9 -23.1 47.3 -14.5 11.9 5.9 17.9 16.1 17.8 30.6 0 9.2 -1.7 14.8 -6.6 21.1 -4.3 5.7 -11 10 -18.2 11.9 -7.2 1.8 -12.3 1.8 -19.3 -0.1z m19.3 -16.7 c10.6 -5.9 11.4 -24.7 1.4 -31.8 -4.9 -3.5 -14.9 -3.8 -20.3 -0.7 -5.3 3.1 -8 8.5 -8 16.2 0.1 8.5 3.8 14.9 10.4 17.5 4.5 1.8 12.2 1.2 16.5 -1.2z"/>
  <path d="M926.3 710.3 c-2.6 -0.3 -3.3 -0.9 -3.3 -2.6 -0.1 -2 -0.2 -2.1 -1.4 -0.4 -1.4 1.8 -3.3 2.1 -6 1.1 -1.3 -0.5 -1.6 -2.2 -1.6 -8.4 l0 -7.9 6.8 2 c7.8 2.3 23.4 2.8 25.7 0.9 4.1 -3.4 0.8 -6.1 -12 -10.4 -11 -3.6 -15.6 -6.4 -18.2 -11.1 -2.8 -4.9 -3.1 -14 -0.7 -19.2 4.7 -9.7 22.2 -14.7 39.7 -11.2 l5.7 1.2 0 8.3 0 8.2 -5.6 -1.9 c-12.5 -4.4 -25.4 -3.2 -25.4 2.4 0 3.6 0.8 4.1 20 11.3 12.3 4.5 16.2 10.1 14.5 21.2 -0.6 3.8 -1.5 5.5 -5.3 9.2 -2.9 2.8 -6.4 5.1 -9.2 5.9 -4.7 1.4 -18.2 2.2 -23.7 1.4z"/>
  <path d="M1072.7 710.1 c-4.3 -0.9 -8.1 -3.4 -11.1 -7.5 -2 -2.6 -2.1 -4.2 -2.4 -40.2 l-0.3 -37.5 8.2 0.3 8.2 0.3 -0.2 8.7 -0.2 8.8 9 0 9.1 0 0 7 0 7 -9 0 -9 0 0.1 16.3 c0 9.8 0.5 17.6 1.2 19.7 1.1 3.2 1.6 3.5 5.4 3.8 2.2 0.2 5.5 -0.1 7.3 -0.5 3 -0.8 3.2 -1.2 3.6 -6.1 0.5 -6.8 2.5 -10.6 7.2 -13.7 5.1 -3.3 10.9 -4.4 23 -4.5 l10.2 0 0 -4.1 c0 -3.1 -0.6 -4.7 -2.9 -7 -2.7 -2.7 -3.5 -2.9 -10.3 -2.9 -4.3 0 -10.2 0.8 -14.3 2 -3.8 1.1 -7.1 2 -7.2 2 -0.2 0 -0.3 -3.8 -0.3 -8.4 l0 -8.4 9 -1.7 c12.3 -2.4 22.9 -1.8 30.2 1.8 11 5.4 12.8 11.3 12.8 41.9 l0 21.8 -8.5 0 -8.5 0 0 -5.1 0 -5.2 -4.1 4.6 c-3 3.5 -5.3 5 -9.2 6.2 -9.6 2.8 -16.2 1.3 -22.4 -5.1 l-4.3 -4.4 0 4.4 c0 4 -0.2 4.5 -2.7 5 -5.8 1.1 -13.9 1.4 -17.6 0.7z m53.2 -14 c3.6 -2.5 6 -6.2 6.3 -9.6 l0.3 -3 -9.7 0 c-8 0.1 -10 0.4 -11.7 1.9 -2.1 1.9 -2.7 5.9 -1.5 9.1 1.7 4.4 11.2 5.3 16.3 1.6z"/>
  <path d="M777.8 709.2 l-7.8 -0.3 0 -44.2 0 -44.2 8.5 0.3 8.5 0.3 0 18 0 17.9 18 0 18 0 0 -18 0 -18 8.5 0 8.5 0 0 43.8 c0 24.1 -0.2 44.1 -0.4 44.3 -0.2 0.2 -4.1 0.3 -8.5 0.1 l-8.1 -0.4 0 -18.4 0 -18.4 -18 0 -18 0 -0.2 6.3 c0 3.4 0 7.3 0.1 8.7 0.3 2.9 -1.8 11 -2.9 11 -0.4 0 -1.4 -1.8 -2.3 -4 -1.1 -2.8 -2 -3.8 -3 -3.4 -1.2 0.4 -1.1 1.4 0.7 6 1.9 5.1 2.3 5.5 4.9 5.1 2.5 -0.3 2.7 -0.1 2.7 3.4 0 2.1 -0.3 3.9 -0.7 4.1 -0.5 0.2 -4.3 0.2 -8.5 0z m1.2 -22.6 c0 -0.8 -0.4 -1.7 -0.8 -2 -1.3 -0.8 -3.5 1.1 -2.8 2.3 1 1.6 3.6 1.4 3.6 -0.3z m-2.4 -4.7 c0.3 -0.6 0.2 -1.5 -0.2 -1.9 -1.2 -1.2 -3.8 0.5 -3 1.9 0.9 1.4 2.3 1.4 3.2 0z m-2.3 -6.5 c-0.3 -0.8 -0.9 -1.4 -1.3 -1.4 -1.3 0 -2.2 1.9 -1.5 3 0.9 1.4 3.4 0 2.8 -1.6z"/>
  <path d="M1155 665 c0 -42.5 0.1 -44 1.9 -44 1 0 2.1 0.7 2.5 1.5 0.7 2 3.6 1.9 3.6 -0.1 0 -2.4 7.4 -1.5 7.8 1 0.5 2.2 -1.8 10.6 -2.8 10.6 -0.4 0 -1.4 -1.8 -2.3 -4 -1.1 -2.8 -2 -3.8 -3 -3.4 -1.2 0.4 -1.1 1.4 0.7 6 1.9 5.1 2.3 5.5 4.9 5.1 l2.7 -0.4 0 35.9 0 35.8 -8 0 -8 0 0 -44z"/>
  <path d="M1036.3 675.5 c0 -10.6 0.2 -13.7 0.8 -10.5 0.4 2.5 0.8 7.2 0.8 10.5 0 3.3 -0.4 8 -0.8 10.5 -0.6 3.2 -0.8 0.1 -0.8 -10.5z"/>
 </g>
 <g fill="#4395d1">
  <path d="M400.1 893.9 c-11.2 -2.2 -23 -12 -27.2 -22.6 -2.4 -5.7 -2.4 -6.4 -2.9 -53.3 -0.5 -43 -0.7 -47.9 -2.3 -51.5 -4.2 -9.2 -12.1 -13.1 -25.1 -12.3 -15.7 1 -25 9.5 -27.6 24.9 -0.5 3.6 -1 22.5 -1 42.7 l0 36.2 -16.3 -0.2 -16.2 -0.3 -0.3 -68.8 c-0.1 -46 0.1 -68.6 0.8 -68.2 0.6 0.4 1 -2.1 1 -7 0 -4.8 -0.4 -7.4 -1 -7 -0.6 0.4 -1 -4.2 -1 -12.9 l0 -13.6 16.5 0 16.5 0 0 37.1 c0 23.7 0.3 36.8 1 36.4 0.5 -0.3 1.9 -2.6 3 -5.1 7 -16.1 21.5 -25.3 39.5 -25.4 12.9 0 23.4 3.5 31.1 10.3 7.4 6.4 14.1 20 12.9 25.9 -0.9 3.8 -1.9 3.5 -3.8 -1.2 -1.1 -2.8 -2 -3.8 -3 -3.4 -1.2 0.4 -1.1 1.4 0.7 6 1.9 5.1 2.3 5.5 4.9 5.1 l2.7 -0.4 0 46.7 c0 44 0.1 46.8 1.8 48.3 2.6 2.3 5.8 2.1 7.6 -0.5 1.4 -2 1.6 -10.2 1.6 -68.5 l0 -66.3 16 0 16 0 0 14 c0 7.7 0.4 14 0.9 14 0.5 0 2.5 -3.4 4.4 -7.5 4.5 -9.4 12 -17.5 19 -20.5 4.4 -1.9 6.4 -2.2 13.7 -1.7 4.7 0.3 11.7 1.2 15.6 2.1 l7.1 1.7 -4.9 16.1 c-2.6 8.9 -5 16.3 -5.2 16.5 -0.2 0.2 -3.1 -0.5 -6.5 -1.7 -20.4 -6.8 -35.8 -1 -41.2 15.6 -0.9 2.8 -1.4 16.3 -1.8 47.9 l-0.6 44 -3.2 6.7 c-7.9 16.7 -25 25.3 -43.2 21.7z m-5.1 -143.3 c0 -0.8 -0.4 -1.7 -0.8 -2 -1.3 -0.8 -3.5 1.1 -2.8 2.3 1 1.6 3.6 1.4 3.6 -0.3z m-2.4 -4.7 c0.3 -0.6 0.2 -1.5 -0.2 -1.9 -1.2 -1.2 -3.8 0.5 -3 1.9 0.9 1.4 2.3 1.4 3.2 0z m-2.3 -6.5 c-0.3 -0.8 -0.9 -1.4 -1.3 -1.4 -1.3 0 -2.2 1.9 -1.5 3 0.9 1.4 3.4 0 2.8 -1.6z"/>
  <path d="M1036.4 709.1 c-0.2 -0.2 -0.4 -15.2 -0.4 -33.3 l0 -32.8 8.5 0 8.5 0 -0.2 33.1 -0.3 33.1 -7.8 0.1 c-4.3 0.1 -8.1 0 -8.3 -0.2z"/>
  <path d="M1034.2 675 c0 -1.9 0.2 -2.7 0.5 -1.7 0.2 0.9 0.2 2.5 0 3.5 -0.3 0.9 -0.5 0.1 -0.5 -1.8z"/>
  <path d="M290.8 662 c-4.9 -1.2 -11.1 -5.4 -14.1 -9.4 -13.3 -17.7 -1.2 -42.6 20.8 -42.6 21.6 0 33.9 24.4 21.1 42 -5.9 8.1 -18 12.4 -27.8 10z"/>
  <path d="M1038.7 632.9 c-2.4 -1.4 -4.7 -6.2 -4.7 -9.9 0 -3.6 4.3 -8.5 8.2 -9.5 4.1 -1.1 9.7 1.9 11.4 6.1 2 4.7 1.1 8.7 -2.8 11.9 -3.1 2.7 -8.8 3.3 -12.1 1.4z"/>
 </g>
</svg>
